%TF.GenerationSoftware,KiCad,Pcbnew,9.0.1*%
%TF.CreationDate,2026-04-06T14:54:28+03:00*%
%TF.ProjectId,220V AC - 12V DC Converter,32323056-2041-4432-902d-203132562044,rev?*%
%TF.SameCoordinates,Original*%
%TF.FileFunction,Copper,L2,Bot*%
%TF.FilePolarity,Positive*%
%FSLAX46Y46*%
G04 Gerber Fmt 4.6, Leading zero omitted, Abs format (unit mm)*
G04 Created by KiCad (PCBNEW 9.0.1) date 2026-04-06 14:54:28*
%MOMM*%
%LPD*%
G01*
G04 APERTURE LIST*
G04 Aperture macros list*
%AMRoundRect*
0 Rectangle with rounded corners*
0 $1 Rounding radius*
0 $2 $3 $4 $5 $6 $7 $8 $9 X,Y pos of 4 corners*
0 Add a 4 corners polygon primitive as box body*
4,1,4,$2,$3,$4,$5,$6,$7,$8,$9,$2,$3,0*
0 Add four circle primitives for the rounded corners*
1,1,$1+$1,$2,$3*
1,1,$1+$1,$4,$5*
1,1,$1+$1,$6,$7*
1,1,$1+$1,$8,$9*
0 Add four rect primitives between the rounded corners*
20,1,$1+$1,$2,$3,$4,$5,0*
20,1,$1+$1,$4,$5,$6,$7,0*
20,1,$1+$1,$6,$7,$8,$9,0*
20,1,$1+$1,$8,$9,$2,$3,0*%
G04 Aperture macros list end*
%ADD10C,0.600000*%
%TA.AperFunction,ComponentPad*%
%ADD11R,2.000000X2.000000*%
%TD*%
%TA.AperFunction,ComponentPad*%
%ADD12O,2.000000X2.000000*%
%TD*%
%TA.AperFunction,ComponentPad*%
%ADD13C,3.000000*%
%TD*%
%TA.AperFunction,ComponentPad*%
%ADD14RoundRect,0.250000X1.050000X1.050000X-1.050000X1.050000X-1.050000X-1.050000X1.050000X-1.050000X0*%
%TD*%
%TA.AperFunction,ComponentPad*%
%ADD15C,2.600000*%
%TD*%
%TA.AperFunction,ComponentPad*%
%ADD16R,2.000000X1.905000*%
%TD*%
%TA.AperFunction,ComponentPad*%
%ADD17O,2.000000X1.905000*%
%TD*%
%TA.AperFunction,ComponentPad*%
%ADD18C,5.600000*%
%TD*%
%TA.AperFunction,ComponentPad*%
%ADD19C,1.600000*%
%TD*%
%TA.AperFunction,ComponentPad*%
%ADD20O,1.600000X1.600000*%
%TD*%
%TA.AperFunction,ComponentPad*%
%ADD21RoundRect,0.250000X-1.050000X1.050000X-1.050000X-1.050000X1.050000X-1.050000X1.050000X1.050000X0*%
%TD*%
%TA.AperFunction,ComponentPad*%
%ADD22RoundRect,0.250000X-1.050000X-1.050000X1.050000X-1.050000X1.050000X1.050000X-1.050000X1.050000X0*%
%TD*%
%TA.AperFunction,ComponentPad*%
%ADD23R,1.800000X1.800000*%
%TD*%
%TA.AperFunction,ComponentPad*%
%ADD24C,1.800000*%
%TD*%
%TA.AperFunction,ComponentPad*%
%ADD25R,2.400000X2.400000*%
%TD*%
%TA.AperFunction,ComponentPad*%
%ADD26C,2.400000*%
%TD*%
%TA.AperFunction,Conductor*%
%ADD27C,1.000000*%
%TD*%
%TA.AperFunction,Conductor*%
%ADD28C,1.200000*%
%TD*%
%TA.AperFunction,Conductor*%
%ADD29C,1.500000*%
%TD*%
%TA.AperFunction,Conductor*%
%ADD30C,0.500000*%
%TD*%
G04 APERTURE END LIST*
D10*
G36*
X146967019Y-113241953D02*
G01*
X147061579Y-113350022D01*
X147159313Y-113610646D01*
X147033832Y-114614491D01*
X146853670Y-114902751D01*
X146703993Y-115035798D01*
X146399102Y-115179276D01*
X145779259Y-115179276D01*
X145670398Y-115121217D01*
X145910025Y-113204198D01*
X146104655Y-113112609D01*
X146724497Y-113112609D01*
X146967019Y-113241953D01*
G37*
G36*
X157228924Y-111908621D02*
G01*
X157465594Y-112179098D01*
X157544782Y-112812608D01*
X157387148Y-114073678D01*
X157139915Y-114732967D01*
X156799231Y-115035798D01*
X156494340Y-115179276D01*
X155874498Y-115179276D01*
X155631974Y-115049930D01*
X155395306Y-114779452D01*
X155316117Y-114145941D01*
X155473751Y-112884872D01*
X155720984Y-112225583D01*
X156061668Y-111922753D01*
X156366560Y-111779276D01*
X156986402Y-111779276D01*
X157228924Y-111908621D01*
G37*
G36*
X185255659Y-117556720D02*
G01*
X144578870Y-117556720D01*
X144578870Y-116826747D01*
X148095069Y-116826747D01*
X148108940Y-116903824D01*
X148142286Y-116974686D01*
X148192836Y-117034502D01*
X148257146Y-117079196D01*
X148330833Y-117105724D01*
X148408874Y-117112276D01*
X148485951Y-117098405D01*
X148522475Y-117084055D01*
X148927237Y-116893579D01*
X148961575Y-116874583D01*
X148964459Y-116872145D01*
X148967834Y-116870453D01*
X148998807Y-116846356D01*
X149020867Y-116826747D01*
X168095069Y-116826747D01*
X168108940Y-116903824D01*
X168142286Y-116974686D01*
X168192836Y-117034502D01*
X168257146Y-117079196D01*
X168330833Y-117105724D01*
X168408874Y-117112276D01*
X168485951Y-117098405D01*
X168522475Y-117084055D01*
X168927237Y-116893579D01*
X168961575Y-116874583D01*
X168964459Y-116872145D01*
X168967834Y-116870453D01*
X168998807Y-116846356D01*
X169213093Y-116655880D01*
X169240655Y-116627946D01*
X169248838Y-116615518D01*
X169258929Y-116604584D01*
X169279403Y-116571107D01*
X169779403Y-115618726D01*
X169781483Y-115614041D01*
X169784015Y-115609566D01*
X169845886Y-115481240D01*
X171689981Y-115481240D01*
X171700710Y-115558817D01*
X171731154Y-115630973D01*
X171779235Y-115692792D01*
X171841678Y-115740060D01*
X171914226Y-115769555D01*
X171991938Y-115779269D01*
X172069515Y-115768540D01*
X172141671Y-115738096D01*
X172203490Y-115690015D01*
X172250758Y-115627572D01*
X172280253Y-115555024D01*
X172287657Y-115516486D01*
X172517543Y-113677394D01*
X172697706Y-113389132D01*
X172847382Y-113256086D01*
X173152274Y-113112609D01*
X173466164Y-113112609D01*
X173505322Y-113110042D01*
X173580969Y-113089773D01*
X173648792Y-113050615D01*
X173704170Y-112995237D01*
X173743328Y-112927414D01*
X173763597Y-112851767D01*
X173763597Y-112773451D01*
X173930636Y-112773451D01*
X173930636Y-112851767D01*
X173950905Y-112927414D01*
X173990063Y-112995237D01*
X174045441Y-113050615D01*
X174113264Y-113089773D01*
X174188911Y-113110042D01*
X174228069Y-113112609D01*
X174459663Y-113112609D01*
X174239910Y-114870637D01*
X174238617Y-114892548D01*
X174237766Y-114897670D01*
X174238108Y-114901189D01*
X174237600Y-114909811D01*
X174242140Y-114942638D01*
X174245348Y-114975618D01*
X174247844Y-114983882D01*
X174248329Y-114987388D01*
X174250348Y-114992174D01*
X174256694Y-115013184D01*
X174399551Y-115394137D01*
X174405850Y-115408084D01*
X174407305Y-115412863D01*
X174409863Y-115416969D01*
X174415704Y-115429900D01*
X174432989Y-115454084D01*
X174448721Y-115479331D01*
X174455695Y-115485851D01*
X174461244Y-115493614D01*
X174484202Y-115512501D01*
X174505930Y-115532814D01*
X174517990Y-115540298D01*
X174521723Y-115543369D01*
X174526267Y-115545434D01*
X174539274Y-115553506D01*
X174896417Y-115743982D01*
X174918488Y-115753957D01*
X174922788Y-115756440D01*
X174925717Y-115757224D01*
X174932176Y-115760144D01*
X174965434Y-115767866D01*
X174998435Y-115776709D01*
X175005511Y-115777172D01*
X175008462Y-115777858D01*
X175013418Y-115777691D01*
X175037593Y-115779276D01*
X175418545Y-115779276D01*
X175457703Y-115776709D01*
X175533350Y-115756440D01*
X175601173Y-115717282D01*
X175656551Y-115661904D01*
X175695709Y-115594081D01*
X175715978Y-115518434D01*
X175715978Y-115440118D01*
X175695709Y-115364471D01*
X175656551Y-115296648D01*
X175619572Y-115259669D01*
X176286629Y-115259669D01*
X176289263Y-115337940D01*
X176312066Y-115412863D01*
X176353482Y-115479331D01*
X176410691Y-115532814D01*
X176444035Y-115553506D01*
X176801178Y-115743982D01*
X176823249Y-115753957D01*
X176827549Y-115756440D01*
X176830478Y-115757224D01*
X176836937Y-115760144D01*
X176870195Y-115767866D01*
X176903196Y-115776709D01*
X176910272Y-115777172D01*
X176913223Y-115777858D01*
X176918179Y-115777691D01*
X176942354Y-115779276D01*
X177704259Y-115779276D01*
X177714425Y-115778609D01*
X177718397Y-115778943D01*
X177723587Y-115778008D01*
X177743417Y-115776709D01*
X177769203Y-115769799D01*
X177795474Y-115765072D01*
X177813971Y-115757804D01*
X177819064Y-115756440D01*
X177822513Y-115754448D01*
X177831998Y-115750722D01*
X178236760Y-115560246D01*
X178271098Y-115541250D01*
X178276715Y-115536503D01*
X178283209Y-115533051D01*
X178306540Y-115511297D01*
X178330914Y-115490700D01*
X178335112Y-115484658D01*
X178340490Y-115479645D01*
X178363421Y-115447799D01*
X178601516Y-115066846D01*
X178605719Y-115059023D01*
X178607900Y-115056144D01*
X178609864Y-115051312D01*
X178620093Y-115032280D01*
X178627656Y-115007549D01*
X178637395Y-114983595D01*
X178641472Y-114962374D01*
X178642997Y-114957388D01*
X178643123Y-114953779D01*
X178644799Y-114945058D01*
X178668609Y-114754583D01*
X178669901Y-114732667D01*
X178670753Y-114727547D01*
X178670410Y-114724028D01*
X178670919Y-114715409D01*
X178666377Y-114682574D01*
X178663170Y-114649599D01*
X178660674Y-114641337D01*
X178660190Y-114637832D01*
X178658169Y-114633043D01*
X178651824Y-114612033D01*
X178508967Y-114231081D01*
X178502668Y-114217135D01*
X178501214Y-114212357D01*
X178498655Y-114208250D01*
X178492814Y-114195318D01*
X178475526Y-114171131D01*
X178459798Y-114145889D01*
X178452824Y-114139369D01*
X178447274Y-114131604D01*
X178424309Y-114112711D01*
X178402589Y-114092406D01*
X178390529Y-114084922D01*
X178386794Y-114081849D01*
X178382247Y-114079782D01*
X178369246Y-114071714D01*
X178012103Y-113881237D01*
X177990029Y-113871260D01*
X177985731Y-113868778D01*
X177982803Y-113867993D01*
X177976344Y-113865074D01*
X177943077Y-113857349D01*
X177910084Y-113848509D01*
X177903008Y-113848045D01*
X177900058Y-113847360D01*
X177895101Y-113847526D01*
X177870926Y-113845942D01*
X177374497Y-113845942D01*
X177183479Y-113744066D01*
X177106348Y-113538382D01*
X177112781Y-113486917D01*
X177269015Y-113236943D01*
X177533226Y-113112609D01*
X177962592Y-113112609D01*
X178253559Y-113267791D01*
X178289318Y-113283953D01*
X178365604Y-113301667D01*
X178443875Y-113299033D01*
X178518798Y-113276230D01*
X178585266Y-113234814D01*
X178638749Y-113177605D01*
X178675603Y-113108502D01*
X178693317Y-113032216D01*
X178690683Y-112953945D01*
X178667880Y-112879022D01*
X178644640Y-112841724D01*
X179643771Y-112841724D01*
X179650125Y-112880448D01*
X180269173Y-115547115D01*
X180280528Y-115584678D01*
X180288172Y-115599014D01*
X180293531Y-115614349D01*
X180306518Y-115633417D01*
X180317378Y-115653782D01*
X180328471Y-115665649D01*
X180337617Y-115679077D01*
X180355102Y-115694137D01*
X180370859Y-115710994D01*
X180384647Y-115719586D01*
X180396955Y-115730188D01*
X180417738Y-115740208D01*
X180437325Y-115752415D01*
X180452867Y-115757146D01*
X180467499Y-115764201D01*
X180490166Y-115768500D01*
X180512246Y-115775222D01*
X180528485Y-115775769D01*
X180544443Y-115778796D01*
X180567457Y-115777082D01*
X180590517Y-115777859D01*
X180606335Y-115774186D01*
X180622542Y-115772980D01*
X180644329Y-115765367D01*
X180666804Y-115760150D01*
X180681140Y-115752505D01*
X180696475Y-115747147D01*
X180715543Y-115734159D01*
X180735908Y-115723300D01*
X180747775Y-115712206D01*
X180761203Y-115703061D01*
X180776263Y-115685575D01*
X180793120Y-115669819D01*
X180801712Y-115656030D01*
X180812314Y-115643723D01*
X180831633Y-115609566D01*
X180893504Y-115481240D01*
X182737599Y-115481240D01*
X182748328Y-115558817D01*
X182778772Y-115630973D01*
X182826853Y-115692792D01*
X182889296Y-115740060D01*
X182961844Y-115769555D01*
X183039556Y-115779269D01*
X183117133Y-115768540D01*
X183189289Y-115738096D01*
X183251108Y-115690015D01*
X183298376Y-115627572D01*
X183327871Y-115555024D01*
X183335275Y-115516486D01*
X183565161Y-113677394D01*
X183745324Y-113389132D01*
X183895000Y-113256086D01*
X184199892Y-113112609D01*
X184513782Y-113112609D01*
X184552940Y-113110042D01*
X184628587Y-113089773D01*
X184696410Y-113050615D01*
X184751788Y-112995237D01*
X184790946Y-112927414D01*
X184811215Y-112851767D01*
X184811215Y-112773451D01*
X184790946Y-112697804D01*
X184751788Y-112629981D01*
X184696410Y-112574603D01*
X184628587Y-112535445D01*
X184552940Y-112515176D01*
X184513782Y-112512609D01*
X184132830Y-112512609D01*
X184122663Y-112513275D01*
X184118692Y-112512942D01*
X184113501Y-112513876D01*
X184093672Y-112515176D01*
X184067885Y-112522085D01*
X184041615Y-112526813D01*
X184023117Y-112534080D01*
X184018025Y-112535445D01*
X184014575Y-112537436D01*
X184005091Y-112541163D01*
X183649769Y-112708372D01*
X183629745Y-112660912D01*
X183581664Y-112599093D01*
X183519221Y-112551825D01*
X183446673Y-112522329D01*
X183368961Y-112512615D01*
X183291385Y-112523345D01*
X183219228Y-112553788D01*
X183157409Y-112601870D01*
X183110141Y-112664312D01*
X183080646Y-112736861D01*
X183073242Y-112775398D01*
X182739909Y-115442066D01*
X182737599Y-115481240D01*
X180893504Y-115481240D01*
X182117347Y-112942898D01*
X182132041Y-112906511D01*
X182146637Y-112829568D01*
X182140820Y-112751469D01*
X182114988Y-112677535D01*
X182070901Y-112612808D01*
X182011563Y-112561697D01*
X181941019Y-112527684D01*
X181864075Y-112513088D01*
X181785976Y-112518905D01*
X181712043Y-112544737D01*
X181647315Y-112588824D01*
X181596204Y-112648162D01*
X181576886Y-112682319D01*
X180661045Y-114581838D01*
X180234583Y-112744770D01*
X180223228Y-112707207D01*
X180186378Y-112638103D01*
X180132897Y-112580891D01*
X180066431Y-112539470D01*
X179991510Y-112516663D01*
X179913239Y-112514026D01*
X179836952Y-112531735D01*
X179767848Y-112568585D01*
X179710636Y-112622066D01*
X179669215Y-112688532D01*
X179646408Y-112763453D01*
X179643771Y-112841724D01*
X178644640Y-112841724D01*
X178626464Y-112812554D01*
X178569255Y-112759071D01*
X178535911Y-112738379D01*
X178178768Y-112547903D01*
X178156696Y-112537927D01*
X178152397Y-112535445D01*
X178149467Y-112534660D01*
X178143009Y-112531741D01*
X178109750Y-112524018D01*
X178076750Y-112515176D01*
X178069673Y-112514712D01*
X178066723Y-112514027D01*
X178061766Y-112514193D01*
X178037592Y-112512609D01*
X177466164Y-112512609D01*
X177455997Y-112513275D01*
X177452026Y-112512942D01*
X177446835Y-112513876D01*
X177427006Y-112515176D01*
X177401219Y-112522085D01*
X177374949Y-112526813D01*
X177356451Y-112534080D01*
X177351359Y-112535445D01*
X177347909Y-112537436D01*
X177338425Y-112541163D01*
X176933663Y-112731639D01*
X176899325Y-112750635D01*
X176893707Y-112755381D01*
X176887214Y-112758834D01*
X176863882Y-112780587D01*
X176839509Y-112801185D01*
X176835310Y-112807226D01*
X176829933Y-112812240D01*
X176807003Y-112844085D01*
X176568907Y-113225039D01*
X176564703Y-113232861D01*
X176562523Y-113235741D01*
X176560558Y-113240572D01*
X176550330Y-113259605D01*
X176542766Y-113284336D01*
X176533028Y-113308290D01*
X176528951Y-113329508D01*
X176527426Y-113334496D01*
X176527299Y-113338105D01*
X176525624Y-113346827D01*
X176501814Y-113537303D01*
X176500521Y-113559217D01*
X176499670Y-113564338D01*
X176500012Y-113567856D01*
X176499504Y-113576477D01*
X176504045Y-113609315D01*
X176507253Y-113642285D01*
X176509747Y-113650546D01*
X176510233Y-113654054D01*
X176512253Y-113658843D01*
X176518598Y-113679851D01*
X176661455Y-114060803D01*
X176667755Y-114074751D01*
X176669209Y-114079529D01*
X176671766Y-114083633D01*
X176677608Y-114096567D01*
X176694896Y-114120754D01*
X176710625Y-114145997D01*
X176717599Y-114152517D01*
X176723148Y-114160280D01*
X176746106Y-114179167D01*
X176767834Y-114199480D01*
X176779894Y-114206964D01*
X176783627Y-114210035D01*
X176788171Y-114212100D01*
X176801178Y-114220172D01*
X177158321Y-114410648D01*
X177180392Y-114420623D01*
X177184692Y-114423106D01*
X177187621Y-114423890D01*
X177194080Y-114426810D01*
X177227338Y-114434532D01*
X177260339Y-114443375D01*
X177267415Y-114443838D01*
X177270366Y-114444524D01*
X177275322Y-114444357D01*
X177299497Y-114445942D01*
X177795926Y-114445942D01*
X177986942Y-114547818D01*
X178064074Y-114753503D01*
X178057641Y-114804967D01*
X177901408Y-115054941D01*
X177637197Y-115179276D01*
X177017354Y-115179276D01*
X176726387Y-115024094D01*
X176690628Y-115007932D01*
X176614342Y-114990218D01*
X176536071Y-114992852D01*
X176461148Y-115015655D01*
X176394680Y-115057071D01*
X176341197Y-115114280D01*
X176304343Y-115183383D01*
X176286629Y-115259669D01*
X175619572Y-115259669D01*
X175601173Y-115241270D01*
X175533350Y-115202112D01*
X175457703Y-115181843D01*
X175418545Y-115179276D01*
X175112593Y-115179276D01*
X174921575Y-115077400D01*
X174844443Y-114871714D01*
X175064332Y-113112609D01*
X175751878Y-113112609D01*
X175791036Y-113110042D01*
X175866683Y-113089773D01*
X175934506Y-113050615D01*
X175989884Y-112995237D01*
X176029042Y-112927414D01*
X176049311Y-112851767D01*
X176049311Y-112773451D01*
X176029042Y-112697804D01*
X175989884Y-112629981D01*
X175934506Y-112574603D01*
X175866683Y-112535445D01*
X175791036Y-112515176D01*
X175751878Y-112512609D01*
X175139332Y-112512609D01*
X175263847Y-111516486D01*
X175266157Y-111477312D01*
X175255428Y-111399735D01*
X175224984Y-111327579D01*
X175176903Y-111265760D01*
X175114460Y-111218492D01*
X175041912Y-111188997D01*
X174964200Y-111179283D01*
X174886623Y-111190012D01*
X174814467Y-111220456D01*
X174752648Y-111268537D01*
X174705380Y-111330979D01*
X174675885Y-111403528D01*
X174668481Y-111442065D01*
X174534663Y-112512609D01*
X174228069Y-112512609D01*
X174188911Y-112515176D01*
X174113264Y-112535445D01*
X174045441Y-112574603D01*
X173990063Y-112629981D01*
X173950905Y-112697804D01*
X173930636Y-112773451D01*
X173763597Y-112773451D01*
X173743328Y-112697804D01*
X173704170Y-112629981D01*
X173648792Y-112574603D01*
X173580969Y-112535445D01*
X173505322Y-112515176D01*
X173466164Y-112512609D01*
X173085212Y-112512609D01*
X173075045Y-112513275D01*
X173071074Y-112512942D01*
X173065883Y-112513876D01*
X173046054Y-112515176D01*
X173020267Y-112522085D01*
X172993997Y-112526813D01*
X172975499Y-112534080D01*
X172970407Y-112535445D01*
X172966957Y-112537436D01*
X172957473Y-112541163D01*
X172602151Y-112708372D01*
X172582127Y-112660912D01*
X172534046Y-112599093D01*
X172471603Y-112551825D01*
X172399055Y-112522329D01*
X172321343Y-112512615D01*
X172243767Y-112523345D01*
X172171610Y-112553788D01*
X172109791Y-112601870D01*
X172062523Y-112664312D01*
X172033028Y-112736861D01*
X172025624Y-112775398D01*
X171692291Y-115442066D01*
X171689981Y-115481240D01*
X169845886Y-115481240D01*
X171069729Y-112942898D01*
X171084423Y-112906511D01*
X171099019Y-112829568D01*
X171093202Y-112751469D01*
X171067370Y-112677535D01*
X171023283Y-112612808D01*
X170963945Y-112561697D01*
X170893401Y-112527684D01*
X170816457Y-112513088D01*
X170738358Y-112518905D01*
X170664425Y-112544737D01*
X170599697Y-112588824D01*
X170548586Y-112648162D01*
X170529268Y-112682319D01*
X169613427Y-114581838D01*
X169186965Y-112744770D01*
X169175610Y-112707207D01*
X169138760Y-112638103D01*
X169085279Y-112580891D01*
X169018813Y-112539470D01*
X168943892Y-112516663D01*
X168865621Y-112514026D01*
X168789334Y-112531735D01*
X168720230Y-112568585D01*
X168663018Y-112622066D01*
X168621597Y-112688532D01*
X168598790Y-112763453D01*
X168596153Y-112841724D01*
X168602507Y-112880448D01*
X169196347Y-115438526D01*
X168773592Y-116243774D01*
X168632565Y-116369131D01*
X168266997Y-116541163D01*
X168232659Y-116560159D01*
X168172843Y-116610709D01*
X168128149Y-116675019D01*
X168101621Y-116748706D01*
X168095069Y-116826747D01*
X149020867Y-116826747D01*
X149213093Y-116655880D01*
X149240655Y-116627946D01*
X149248838Y-116615518D01*
X149258929Y-116604584D01*
X149279403Y-116571107D01*
X149779403Y-115618726D01*
X149781483Y-115614041D01*
X149784015Y-115609566D01*
X150490637Y-114143979D01*
X154713790Y-114143979D01*
X154713905Y-114145942D01*
X154713790Y-114147906D01*
X154714193Y-114150824D01*
X154716100Y-114183153D01*
X154811339Y-114945057D01*
X154818743Y-114983595D01*
X154822763Y-114993483D01*
X154824835Y-115003961D01*
X154837462Y-115029638D01*
X154848238Y-115056143D01*
X154854684Y-115064658D01*
X154859395Y-115074238D01*
X154883249Y-115105398D01*
X155216582Y-115486351D01*
X155244300Y-115514130D01*
X155256818Y-115522515D01*
X155267835Y-115532814D01*
X155301179Y-115553506D01*
X155658322Y-115743982D01*
X155680393Y-115753957D01*
X155684693Y-115756440D01*
X155687622Y-115757224D01*
X155694081Y-115760144D01*
X155727339Y-115767866D01*
X155760340Y-115776709D01*
X155767416Y-115777172D01*
X155770367Y-115777858D01*
X155775323Y-115777691D01*
X155799498Y-115779276D01*
X156561402Y-115779276D01*
X156571568Y-115778609D01*
X156575540Y-115778943D01*
X156580730Y-115778008D01*
X156600560Y-115776709D01*
X156626346Y-115769799D01*
X156652617Y-115765072D01*
X156671114Y-115757804D01*
X156676207Y-115756440D01*
X156679656Y-115754448D01*
X156689141Y-115750722D01*
X157093903Y-115560246D01*
X157128241Y-115541250D01*
X157131127Y-115538811D01*
X157134501Y-115537119D01*
X157165473Y-115513023D01*
X157201229Y-115481240D01*
X158928076Y-115481240D01*
X158938805Y-115558817D01*
X158969249Y-115630973D01*
X159017330Y-115692792D01*
X159079773Y-115740060D01*
X159152321Y-115769555D01*
X159230033Y-115779269D01*
X159307610Y-115768540D01*
X159379766Y-115738096D01*
X159441585Y-115690015D01*
X159488853Y-115627572D01*
X159518348Y-115555024D01*
X159525752Y-115516486D01*
X159797464Y-113342786D01*
X159895001Y-113256086D01*
X160199893Y-113112609D01*
X160629259Y-113112609D01*
X160820276Y-113214484D01*
X160897408Y-113420169D01*
X160644672Y-115442066D01*
X160642362Y-115481240D01*
X160653092Y-115558817D01*
X160683535Y-115630973D01*
X160731616Y-115692792D01*
X160794059Y-115740060D01*
X160866607Y-115769555D01*
X160944319Y-115779269D01*
X161021896Y-115768539D01*
X161094052Y-115738096D01*
X161155871Y-115690015D01*
X161203139Y-115627572D01*
X161232634Y-115555024D01*
X161240038Y-115516486D01*
X161315872Y-114909811D01*
X162618553Y-114909811D01*
X162623092Y-114942628D01*
X162626301Y-114975618D01*
X162628799Y-114983888D01*
X162629283Y-114987388D01*
X162631299Y-114992166D01*
X162637647Y-115013184D01*
X162780504Y-115394137D01*
X162786803Y-115408084D01*
X162788258Y-115412863D01*
X162790816Y-115416969D01*
X162796657Y-115429900D01*
X162813942Y-115454084D01*
X162829674Y-115479331D01*
X162836648Y-115485851D01*
X162842197Y-115493614D01*
X162865155Y-115512501D01*
X162886883Y-115532814D01*
X162898943Y-115540298D01*
X162902676Y-115543369D01*
X162907220Y-115545434D01*
X162920227Y-115553506D01*
X163277370Y-115743982D01*
X163299441Y-115753957D01*
X163303741Y-115756440D01*
X163306670Y-115757224D01*
X163313129Y-115760144D01*
X163346387Y-115767866D01*
X163379388Y-115776709D01*
X163386464Y-115777172D01*
X163389415Y-115777858D01*
X163394371Y-115777691D01*
X163418546Y-115779276D01*
X163989974Y-115779276D01*
X164000140Y-115778609D01*
X164004112Y-115778943D01*
X164009302Y-115778008D01*
X164029132Y-115776709D01*
X164054918Y-115769799D01*
X164081189Y-115765072D01*
X164099686Y-115757804D01*
X164104779Y-115756440D01*
X164108228Y-115754448D01*
X164117713Y-115750722D01*
X164321230Y-115654949D01*
X164350664Y-115692792D01*
X164413107Y-115740060D01*
X164485655Y-115769555D01*
X164563367Y-115779269D01*
X164640944Y-115768540D01*
X164713100Y-115738096D01*
X164774919Y-115690015D01*
X164822187Y-115627572D01*
X164851682Y-115555024D01*
X164859086Y-115516486D01*
X164863492Y-115481240D01*
X166166172Y-115481240D01*
X166176901Y-115558817D01*
X166207345Y-115630973D01*
X166255426Y-115692792D01*
X166317869Y-115740060D01*
X166390417Y-115769555D01*
X166468129Y-115779269D01*
X166545706Y-115768540D01*
X166617862Y-115738096D01*
X166679681Y-115690015D01*
X166726949Y-115627572D01*
X166756444Y-115555024D01*
X166763848Y-115516486D01*
X166993734Y-113677394D01*
X167173897Y-113389132D01*
X167323573Y-113256086D01*
X167628465Y-113112609D01*
X167942355Y-113112609D01*
X167981513Y-113110042D01*
X168057160Y-113089773D01*
X168124983Y-113050615D01*
X168180361Y-112995237D01*
X168219519Y-112927414D01*
X168239788Y-112851767D01*
X168239788Y-112773451D01*
X168219519Y-112697804D01*
X168180361Y-112629981D01*
X168124983Y-112574603D01*
X168057160Y-112535445D01*
X167981513Y-112515176D01*
X167942355Y-112512609D01*
X167561403Y-112512609D01*
X167551236Y-112513275D01*
X167547265Y-112512942D01*
X167542074Y-112513876D01*
X167522245Y-112515176D01*
X167496458Y-112522085D01*
X167470188Y-112526813D01*
X167451690Y-112534080D01*
X167446598Y-112535445D01*
X167443148Y-112537436D01*
X167433664Y-112541163D01*
X167078342Y-112708372D01*
X167058318Y-112660912D01*
X167010237Y-112599093D01*
X166947794Y-112551825D01*
X166875246Y-112522329D01*
X166797534Y-112512615D01*
X166719958Y-112523345D01*
X166647801Y-112553788D01*
X166585982Y-112601870D01*
X166538714Y-112664312D01*
X166509219Y-112736861D01*
X166501815Y-112775398D01*
X166168482Y-115442066D01*
X166166172Y-115481240D01*
X164863492Y-115481240D01*
X165192419Y-112849819D01*
X165194729Y-112810645D01*
X165184000Y-112733068D01*
X165153556Y-112660912D01*
X165105475Y-112599093D01*
X165043032Y-112551825D01*
X164970484Y-112522329D01*
X164892772Y-112512615D01*
X164815196Y-112523345D01*
X164743039Y-112553788D01*
X164681220Y-112601870D01*
X164633952Y-112664312D01*
X164604457Y-112736861D01*
X164597053Y-112775398D01*
X164325340Y-114949097D01*
X164227803Y-115035798D01*
X163922912Y-115179276D01*
X163493546Y-115179276D01*
X163302528Y-115077400D01*
X163225396Y-114871714D01*
X163478133Y-112849819D01*
X163480443Y-112810645D01*
X163469714Y-112733068D01*
X163439270Y-112660912D01*
X163391189Y-112599093D01*
X163328746Y-112551825D01*
X163256198Y-112522329D01*
X163178486Y-112512615D01*
X163100909Y-112523345D01*
X163028753Y-112553788D01*
X162966934Y-112601870D01*
X162919666Y-112664312D01*
X162890171Y-112736861D01*
X162882767Y-112775398D01*
X162620863Y-114870637D01*
X162619570Y-114892548D01*
X162618719Y-114897670D01*
X162619061Y-114901189D01*
X162618553Y-114909811D01*
X161315872Y-114909811D01*
X161501942Y-113421248D01*
X161503233Y-113399345D01*
X161504087Y-113394215D01*
X161503743Y-113390689D01*
X161504252Y-113382074D01*
X161499713Y-113349256D01*
X161496504Y-113316267D01*
X161494007Y-113308002D01*
X161493523Y-113304497D01*
X161491503Y-113299710D01*
X161485158Y-113278701D01*
X161342301Y-112897748D01*
X161336001Y-112883800D01*
X161334547Y-112879022D01*
X161331988Y-112874915D01*
X161326148Y-112861985D01*
X161308862Y-112837800D01*
X161293131Y-112812554D01*
X161286156Y-112806033D01*
X161280608Y-112798271D01*
X161257649Y-112779383D01*
X161235922Y-112759071D01*
X161223861Y-112751586D01*
X161220129Y-112748516D01*
X161215584Y-112746450D01*
X161202578Y-112738379D01*
X160845435Y-112547903D01*
X160823363Y-112537927D01*
X160819064Y-112535445D01*
X160816134Y-112534660D01*
X160809676Y-112531741D01*
X160776417Y-112524018D01*
X160743417Y-112515176D01*
X160736340Y-112514712D01*
X160733390Y-112514027D01*
X160728433Y-112514193D01*
X160704259Y-112512609D01*
X160132831Y-112512609D01*
X160122664Y-112513275D01*
X160118693Y-112512942D01*
X160113502Y-112513876D01*
X160093673Y-112515176D01*
X160067886Y-112522085D01*
X160041616Y-112526813D01*
X160023118Y-112534080D01*
X160018026Y-112535445D01*
X160014576Y-112537436D01*
X160005092Y-112541163D01*
X159801574Y-112636935D01*
X159772141Y-112599093D01*
X159709698Y-112551825D01*
X159637150Y-112522329D01*
X159559438Y-112512615D01*
X159481862Y-112523345D01*
X159409705Y-112553788D01*
X159347886Y-112601870D01*
X159300618Y-112664312D01*
X159271123Y-112736861D01*
X159263719Y-112775398D01*
X158930386Y-115442066D01*
X158928076Y-115481240D01*
X157201229Y-115481240D01*
X157594045Y-115132070D01*
X157609977Y-115115922D01*
X157613942Y-115112661D01*
X157615904Y-115109915D01*
X157621607Y-115104136D01*
X157640021Y-115076173D01*
X157659482Y-115048947D01*
X157662823Y-115041549D01*
X157664680Y-115038730D01*
X157666298Y-115033855D01*
X157675635Y-115013184D01*
X157961349Y-114251279D01*
X157969004Y-114225930D01*
X157970729Y-114221690D01*
X157971503Y-114217656D01*
X157972695Y-114213713D01*
X157973139Y-114209143D01*
X157978133Y-114183153D01*
X158144800Y-112849820D01*
X158146706Y-112817489D01*
X158147110Y-112814572D01*
X158146994Y-112812609D01*
X158147110Y-112810646D01*
X158146706Y-112807728D01*
X158144800Y-112775398D01*
X158049562Y-112013494D01*
X158042158Y-111974956D01*
X158038137Y-111965068D01*
X158036066Y-111954590D01*
X158023437Y-111928910D01*
X158012663Y-111902408D01*
X158006218Y-111893893D01*
X158001506Y-111884312D01*
X157977652Y-111853153D01*
X157644318Y-111472200D01*
X157616600Y-111444421D01*
X157604077Y-111436033D01*
X157593065Y-111425738D01*
X157559721Y-111405046D01*
X157202578Y-111214570D01*
X157180506Y-111204594D01*
X157176207Y-111202112D01*
X157173277Y-111201327D01*
X157166819Y-111198408D01*
X157133560Y-111190685D01*
X157100560Y-111181843D01*
X157093483Y-111181379D01*
X157090533Y-111180694D01*
X157085576Y-111180860D01*
X157061402Y-111179276D01*
X156299498Y-111179276D01*
X156289331Y-111179942D01*
X156285360Y-111179609D01*
X156280169Y-111180543D01*
X156260340Y-111181843D01*
X156234553Y-111188752D01*
X156208283Y-111193480D01*
X156189785Y-111200747D01*
X156184693Y-111202112D01*
X156181243Y-111204103D01*
X156171759Y-111207830D01*
X155766997Y-111398306D01*
X155732659Y-111417302D01*
X155729772Y-111419740D01*
X155726399Y-111421433D01*
X155695427Y-111445529D01*
X155266855Y-111826481D01*
X155250923Y-111842627D01*
X155246958Y-111845890D01*
X155244995Y-111848635D01*
X155239293Y-111854415D01*
X155220883Y-111882369D01*
X155201418Y-111909603D01*
X155198075Y-111917003D01*
X155196220Y-111919821D01*
X155194602Y-111924693D01*
X155185265Y-111945367D01*
X154899551Y-112707272D01*
X154891893Y-112732623D01*
X154890171Y-112736862D01*
X154889396Y-112740892D01*
X154888205Y-112744838D01*
X154887760Y-112749409D01*
X154882767Y-112775399D01*
X154716100Y-114108731D01*
X154714193Y-114141060D01*
X154713790Y-114143979D01*
X150490637Y-114143979D01*
X151069729Y-112942898D01*
X151084423Y-112906511D01*
X151099019Y-112829568D01*
X151093202Y-112751469D01*
X151067370Y-112677535D01*
X151023283Y-112612808D01*
X150963945Y-112561697D01*
X150893401Y-112527684D01*
X150816457Y-112513088D01*
X150738358Y-112518905D01*
X150664425Y-112544737D01*
X150599697Y-112588824D01*
X150548586Y-112648162D01*
X150529268Y-112682319D01*
X149613427Y-114581838D01*
X149186965Y-112744770D01*
X149175610Y-112707207D01*
X149138760Y-112638103D01*
X149085279Y-112580891D01*
X149018813Y-112539470D01*
X148943892Y-112516663D01*
X148865621Y-112514026D01*
X148789334Y-112531735D01*
X148720230Y-112568585D01*
X148663018Y-112622066D01*
X148621597Y-112688532D01*
X148598790Y-112763453D01*
X148596153Y-112841724D01*
X148602507Y-112880448D01*
X149196347Y-115438526D01*
X148773592Y-116243774D01*
X148632565Y-116369131D01*
X148266997Y-116541163D01*
X148232659Y-116560159D01*
X148172843Y-116610709D01*
X148128149Y-116675019D01*
X148101621Y-116748706D01*
X148095069Y-116826747D01*
X144578870Y-116826747D01*
X144578870Y-115481240D01*
X145023314Y-115481240D01*
X145034043Y-115558816D01*
X145064487Y-115630973D01*
X145112568Y-115692792D01*
X145175011Y-115740060D01*
X145247559Y-115769555D01*
X145325271Y-115779269D01*
X145402847Y-115768540D01*
X145475004Y-115738096D01*
X145506343Y-115713721D01*
X145563083Y-115743982D01*
X145585154Y-115753957D01*
X145589454Y-115756440D01*
X145592383Y-115757224D01*
X145598842Y-115760144D01*
X145632100Y-115767866D01*
X145665101Y-115776709D01*
X145672177Y-115777172D01*
X145675128Y-115777858D01*
X145680084Y-115777691D01*
X145704259Y-115779276D01*
X146466164Y-115779276D01*
X146476330Y-115778609D01*
X146480302Y-115778943D01*
X146485492Y-115778008D01*
X146505322Y-115776709D01*
X146531108Y-115769799D01*
X146557379Y-115765072D01*
X146575876Y-115757804D01*
X146580969Y-115756440D01*
X146584418Y-115754448D01*
X146593903Y-115750722D01*
X146998665Y-115560246D01*
X147033003Y-115541250D01*
X147035888Y-115538811D01*
X147039263Y-115537119D01*
X147070235Y-115513023D01*
X147284521Y-115322546D01*
X147312083Y-115294612D01*
X147314057Y-115291614D01*
X147316681Y-115289168D01*
X147339611Y-115257323D01*
X147577707Y-114876370D01*
X147581912Y-114868544D01*
X147584091Y-114865667D01*
X147586053Y-114860839D01*
X147596284Y-114841804D01*
X147603848Y-114817070D01*
X147613586Y-114793119D01*
X147617662Y-114771901D01*
X147619188Y-114766913D01*
X147619314Y-114763302D01*
X147620990Y-114754581D01*
X147763847Y-113611724D01*
X147765138Y-113589821D01*
X147765992Y-113584691D01*
X147765648Y-113581165D01*
X147766157Y-113572550D01*
X147761618Y-113539732D01*
X147758409Y-113506743D01*
X147755912Y-113498478D01*
X147755428Y-113494973D01*
X147753408Y-113490186D01*
X147747063Y-113469177D01*
X147604206Y-113088224D01*
X147588053Y-113052461D01*
X147579458Y-113040436D01*
X147572934Y-113027169D01*
X147549080Y-112996009D01*
X147382413Y-112805533D01*
X147354695Y-112777754D01*
X147342172Y-112769366D01*
X147331160Y-112759071D01*
X147297816Y-112738379D01*
X146940673Y-112547903D01*
X146918601Y-112537927D01*
X146914302Y-112535445D01*
X146911372Y-112534660D01*
X146904914Y-112531741D01*
X146871655Y-112524018D01*
X146838655Y-112515176D01*
X146831578Y-112514712D01*
X146828628Y-112514027D01*
X146823671Y-112514193D01*
X146799497Y-112512609D01*
X146037593Y-112512609D01*
X146027426Y-112513275D01*
X146023455Y-112512942D01*
X146018264Y-112513876D01*
X145998435Y-112515176D01*
X145996074Y-112515808D01*
X146120990Y-111516486D01*
X146123300Y-111477312D01*
X146112571Y-111399735D01*
X146082127Y-111327579D01*
X146034046Y-111265760D01*
X145971603Y-111218492D01*
X145899055Y-111188997D01*
X145821343Y-111179283D01*
X145743767Y-111190012D01*
X145671610Y-111220456D01*
X145609791Y-111268537D01*
X145562523Y-111330979D01*
X145533028Y-111403528D01*
X145525624Y-111442065D01*
X145025624Y-115442066D01*
X145023314Y-115481240D01*
X144578870Y-115481240D01*
X144578870Y-110734832D01*
X185255659Y-110734832D01*
X185255659Y-117556720D01*
G37*
D11*
%TO.P,D1,1,+*%
%TO.N,Net-(D1-+)*%
X163080000Y-92920000D03*
D12*
%TO.P,D1,2*%
%TO.N,/pin3*%
X158000000Y-92920000D03*
%TO.P,D1,3,-*%
%TO.N,GND*%
X158000000Y-98000000D03*
%TO.P,D1,4*%
%TO.N,/pin4*%
X163080000Y-98000000D03*
%TD*%
D13*
%TO.P,F1,1*%
%TO.N,Net-(AC_input1-Pin_1)*%
X93000000Y-64000000D03*
%TO.P,F1,2*%
%TO.N,Net-(F1-Pad2)*%
X115500000Y-64000000D03*
%TD*%
D14*
%TO.P,transformer(3&4)1,1,Pin_1*%
%TO.N,/pin4*%
X193010000Y-95827500D03*
D15*
%TO.P,transformer(3&4)1,2,Pin_2*%
%TO.N,/pin3*%
X187930000Y-95827500D03*
%TD*%
D16*
%TO.P,U1,1,IN*%
%TO.N,Net-(D1-+)*%
X167055000Y-67460000D03*
D17*
%TO.P,U1,2,GND*%
%TO.N,GND*%
X167055000Y-70000000D03*
%TO.P,U1,3,OUT*%
%TO.N,Net-(DC_output1-Pin_1)*%
X167055000Y-72540000D03*
%TD*%
D18*
%TO.P,REF\u002A\u002A,1*%
%TO.N,N/C*%
X86000000Y-112000000D03*
%TD*%
D19*
%TO.P,R1,1*%
%TO.N,Net-(D2-A)*%
X138840000Y-82000000D03*
D20*
%TO.P,R1,2*%
%TO.N,Net-(DC_output1-Pin_1)*%
X149000000Y-82000000D03*
%TD*%
D19*
%TO.P,C1,1*%
%TO.N,Net-(DC_output1-Pin_2)*%
X113965000Y-111827500D03*
%TO.P,C1,2*%
%TO.N,GND*%
X118965000Y-111827500D03*
%TD*%
D18*
%TO.P,REF\u002A\u002A,1*%
%TO.N,N/C*%
X192000000Y-112000000D03*
%TD*%
D21*
%TO.P,AC_input1,1,Pin_1*%
%TO.N,Net-(AC_input1-Pin_1)*%
X84000000Y-61455000D03*
D15*
%TO.P,AC_input1,2,Pin_2*%
%TO.N,Net-(AC_input1-Pin_2)*%
X84000000Y-66535000D03*
%TD*%
D19*
%TO.P,C2,1*%
%TO.N,Net-(D1-+)*%
X167000000Y-63000000D03*
%TO.P,C2,2*%
%TO.N,GND*%
X167000000Y-58000000D03*
%TD*%
D18*
%TO.P,REF\u002A\u002A,1*%
%TO.N,N/C*%
X192000000Y-39000000D03*
%TD*%
D22*
%TO.P,transformer(1&2)1,1,Pin_1*%
%TO.N,/pin1*%
X187920000Y-56172500D03*
D15*
%TO.P,transformer(1&2)1,2,Pin_2*%
%TO.N,/pin2*%
X193000000Y-56172500D03*
%TD*%
D18*
%TO.P,REF\u002A\u002A,1*%
%TO.N,N/C*%
X177000000Y-70000000D03*
%TD*%
D22*
%TO.P,DC_output1,1,Pin_1*%
%TO.N,Net-(DC_output1-Pin_1)*%
X102920000Y-112000000D03*
D15*
%TO.P,DC_output1,2,Pin_2*%
%TO.N,Net-(DC_output1-Pin_2)*%
X108000000Y-112000000D03*
%TD*%
D22*
%TO.P,SW2,1,1*%
%TO.N,Net-(AC_input1-Pin_2)*%
X129000000Y-41000000D03*
D15*
%TO.P,SW2,2,2*%
%TO.N,/pin2*%
X134080000Y-41000000D03*
%TO.P,SW2,3,3*%
%TO.N,Net-(F1-Pad2)*%
X139160000Y-41000000D03*
%TO.P,SW2,4,4*%
%TO.N,/pin1*%
X144240000Y-41000000D03*
%TD*%
D23*
%TO.P,D2,1,K*%
%TO.N,GND*%
X140000000Y-93000000D03*
D24*
%TO.P,D2,2,A*%
%TO.N,Net-(D2-A)*%
X137460000Y-93000000D03*
%TD*%
D25*
%TO.P,C3,1*%
%TO.N,Net-(D1-+)*%
X135512755Y-66487245D03*
D26*
%TO.P,C3,2*%
%TO.N,GND*%
X128012755Y-66487245D03*
%TD*%
D18*
%TO.P,REF\u002A\u002A,1*%
%TO.N,N/C*%
X86000000Y-39000000D03*
%TD*%
D27*
%TO.N,Net-(AC_input1-Pin_2)*%
X118000000Y-52000000D02*
X129000000Y-41000000D01*
X81000000Y-59000000D02*
X88000000Y-52000000D01*
X81000000Y-63535000D02*
X81000000Y-59000000D01*
X84000000Y-66535000D02*
X81000000Y-63535000D01*
X88000000Y-52000000D02*
X118000000Y-52000000D01*
%TO.N,Net-(AC_input1-Pin_1)*%
X84000000Y-61455000D02*
X90455000Y-61455000D01*
X90455000Y-61455000D02*
X93000000Y-64000000D01*
D28*
%TO.N,Net-(DC_output1-Pin_2)*%
X108000000Y-112000000D02*
X113792500Y-112000000D01*
X113792500Y-112000000D02*
X113965000Y-111827500D01*
D29*
%TO.N,Net-(D1-+)*%
X191000000Y-77000000D02*
X175080000Y-92920000D01*
X167000000Y-63000000D02*
X167000000Y-67405000D01*
X172000000Y-55000000D02*
X191000000Y-74000000D01*
X191000000Y-74000000D02*
X191000000Y-77000000D01*
X135512755Y-66487245D02*
X147000000Y-55000000D01*
X147000000Y-55000000D02*
X172000000Y-55000000D01*
X160595000Y-61000000D02*
X167055000Y-67460000D01*
X175080000Y-92920000D02*
X163080000Y-92920000D01*
X167000000Y-67405000D02*
X167055000Y-67460000D01*
X135512755Y-66487245D02*
X141000000Y-61000000D01*
X141000000Y-61000000D02*
X160595000Y-61000000D01*
%TO.N,/pin3*%
X187930000Y-95827500D02*
X160907500Y-95827500D01*
X160907500Y-95827500D02*
X158000000Y-92920000D01*
%TO.N,/pin4*%
X189837500Y-99000000D02*
X164080000Y-99000000D01*
X164080000Y-99000000D02*
X163080000Y-98000000D01*
X193010000Y-95827500D02*
X189837500Y-99000000D01*
D30*
%TO.N,Net-(D2-A)*%
X138840000Y-91620000D02*
X137460000Y-93000000D01*
X138840000Y-82000000D02*
X138840000Y-91620000D01*
D28*
%TO.N,Net-(DC_output1-Pin_1)*%
X167055000Y-72540000D02*
X167055000Y-76945000D01*
X114920000Y-100000000D02*
X102920000Y-112000000D01*
D30*
X150000000Y-82000000D02*
X159460000Y-72540000D01*
X149000000Y-82000000D02*
X150000000Y-82000000D01*
D28*
X144000000Y-100000000D02*
X114920000Y-100000000D01*
D30*
X159460000Y-72540000D02*
X167055000Y-72540000D01*
D28*
X167055000Y-76945000D02*
X144000000Y-100000000D01*
D27*
%TO.N,Net-(F1-Pad2)*%
X138500000Y-41000000D02*
X139160000Y-41000000D01*
X115500000Y-64000000D02*
X138500000Y-41000000D01*
%TO.N,/pin2*%
X134080000Y-41000000D02*
X138080000Y-37000000D01*
X138080000Y-37000000D02*
X173827500Y-37000000D01*
X173827500Y-37000000D02*
X193000000Y-56172500D01*
%TO.N,/pin1*%
X179172500Y-56172500D02*
X164000000Y-41000000D01*
X164000000Y-41000000D02*
X144240000Y-41000000D01*
X187920000Y-56172500D02*
X179172500Y-56172500D01*
%TD*%
%TA.AperFunction,Conductor*%
%TO.N,GND*%
G36*
X192002016Y-30500566D02*
G01*
X192551850Y-30518565D01*
X192559928Y-30519095D01*
X193105388Y-30572818D01*
X193113386Y-30573871D01*
X193654187Y-30663158D01*
X193662102Y-30664732D01*
X194195893Y-30789194D01*
X194203697Y-30791285D01*
X194669806Y-30932677D01*
X194728198Y-30950391D01*
X194735882Y-30953000D01*
X195248813Y-31146054D01*
X195256309Y-31149159D01*
X195605132Y-31307208D01*
X195755545Y-31375359D01*
X195762800Y-31378936D01*
X196192644Y-31608693D01*
X196246169Y-31637303D01*
X196253196Y-31641360D01*
X196718619Y-31930779D01*
X196725366Y-31935287D01*
X196916722Y-32072410D01*
X197170877Y-32254535D01*
X197177296Y-32259460D01*
X197590041Y-32598192D01*
X197600976Y-32607166D01*
X197607076Y-32612516D01*
X198007104Y-32987183D01*
X198012816Y-32992895D01*
X198182629Y-33174202D01*
X198387483Y-33392923D01*
X198392833Y-33399023D01*
X198740532Y-33822694D01*
X198745472Y-33829132D01*
X199064712Y-34274633D01*
X199069220Y-34281380D01*
X199358639Y-34746803D01*
X199362696Y-34753830D01*
X199621054Y-35237182D01*
X199624643Y-35244460D01*
X199850840Y-35743690D01*
X199853945Y-35751186D01*
X200046999Y-36264117D01*
X200049608Y-36271801D01*
X200208709Y-36796285D01*
X200210809Y-36804123D01*
X200335262Y-37337876D01*
X200336845Y-37345834D01*
X200426125Y-37886590D01*
X200427184Y-37894635D01*
X200480903Y-38440061D01*
X200481434Y-38448158D01*
X200499434Y-38997983D01*
X200499500Y-39002040D01*
X200499500Y-111997959D01*
X200499434Y-112002016D01*
X200481434Y-112551841D01*
X200480903Y-112559938D01*
X200427184Y-113105364D01*
X200426125Y-113113409D01*
X200336845Y-113654165D01*
X200335262Y-113662123D01*
X200210809Y-114195876D01*
X200208709Y-114203714D01*
X200049608Y-114728198D01*
X200046999Y-114735882D01*
X199853945Y-115248813D01*
X199850840Y-115256309D01*
X199624643Y-115755539D01*
X199621054Y-115762817D01*
X199362696Y-116246169D01*
X199358639Y-116253196D01*
X199069220Y-116718619D01*
X199064712Y-116725366D01*
X198745472Y-117170867D01*
X198740532Y-117177305D01*
X198392833Y-117600976D01*
X198387483Y-117607076D01*
X198012829Y-118007091D01*
X198007091Y-118012829D01*
X197607076Y-118387483D01*
X197600976Y-118392833D01*
X197177305Y-118740532D01*
X197170867Y-118745472D01*
X196725366Y-119064712D01*
X196718619Y-119069220D01*
X196253196Y-119358639D01*
X196246169Y-119362696D01*
X195762817Y-119621054D01*
X195755539Y-119624643D01*
X195256309Y-119850840D01*
X195248813Y-119853945D01*
X194735882Y-120046999D01*
X194728198Y-120049608D01*
X194203714Y-120208709D01*
X194195876Y-120210809D01*
X193662123Y-120335262D01*
X193654165Y-120336845D01*
X193113409Y-120426125D01*
X193105364Y-120427184D01*
X192559938Y-120480903D01*
X192551841Y-120481434D01*
X192002016Y-120499434D01*
X191997959Y-120499500D01*
X86002041Y-120499500D01*
X85997984Y-120499434D01*
X85448158Y-120481434D01*
X85440061Y-120480903D01*
X84894635Y-120427184D01*
X84886590Y-120426125D01*
X84345834Y-120336845D01*
X84337876Y-120335262D01*
X83804123Y-120210809D01*
X83796285Y-120208709D01*
X83271801Y-120049608D01*
X83264117Y-120046999D01*
X82751186Y-119853945D01*
X82743690Y-119850840D01*
X82244460Y-119624643D01*
X82237182Y-119621054D01*
X81753830Y-119362696D01*
X81746803Y-119358639D01*
X81281380Y-119069220D01*
X81274633Y-119064712D01*
X80829132Y-118745472D01*
X80822694Y-118740532D01*
X80799118Y-118721184D01*
X80399023Y-118392833D01*
X80392923Y-118387483D01*
X80284458Y-118285895D01*
X79992895Y-118012816D01*
X79987183Y-118007104D01*
X79612516Y-117607076D01*
X79607166Y-117600976D01*
X79259467Y-117177305D01*
X79254535Y-117170877D01*
X79217965Y-117119844D01*
X145015764Y-117119844D01*
X184818782Y-117119844D01*
X184818782Y-111837857D01*
X188699500Y-111837857D01*
X188699500Y-112162143D01*
X188705937Y-112227500D01*
X188731284Y-112484857D01*
X188731287Y-112484874D01*
X188794545Y-112802902D01*
X188794548Y-112802913D01*
X188888686Y-113113247D01*
X189012786Y-113412849D01*
X189012788Y-113412854D01*
X189165646Y-113698830D01*
X189165657Y-113698848D01*
X189345811Y-113968467D01*
X189345821Y-113968481D01*
X189551546Y-114219158D01*
X189780841Y-114448453D01*
X189780846Y-114448457D01*
X189780847Y-114448458D01*
X190031524Y-114654183D01*
X190301158Y-114834347D01*
X190301167Y-114834352D01*
X190301169Y-114834353D01*
X190587145Y-114987211D01*
X190587147Y-114987211D01*
X190587153Y-114987215D01*
X190886754Y-115111314D01*
X191197077Y-115205449D01*
X191197083Y-115205450D01*
X191197086Y-115205451D01*
X191197097Y-115205454D01*
X191396528Y-115245122D01*
X191515132Y-115268714D01*
X191837857Y-115300500D01*
X191837860Y-115300500D01*
X192162140Y-115300500D01*
X192162143Y-115300500D01*
X192484868Y-115268714D01*
X192642295Y-115237399D01*
X192802902Y-115205454D01*
X192802913Y-115205451D01*
X192802913Y-115205450D01*
X192802923Y-115205449D01*
X193113246Y-115111314D01*
X193412847Y-114987215D01*
X193698842Y-114834347D01*
X193968476Y-114654183D01*
X194219153Y-114448458D01*
X194448458Y-114219153D01*
X194654183Y-113968476D01*
X194834347Y-113698842D01*
X194987215Y-113412847D01*
X195111314Y-113113246D01*
X195205449Y-112802923D01*
X195205451Y-112802913D01*
X195205454Y-112802902D01*
X195249792Y-112579993D01*
X195268714Y-112484868D01*
X195300500Y-112162143D01*
X195300500Y-111837857D01*
X195268714Y-111515132D01*
X195245122Y-111396528D01*
X195205454Y-111197097D01*
X195205451Y-111197086D01*
X195205450Y-111197083D01*
X195205449Y-111197077D01*
X195111314Y-110886754D01*
X194987215Y-110587153D01*
X194955062Y-110527000D01*
X194834353Y-110301169D01*
X194834352Y-110301167D01*
X194834347Y-110301158D01*
X194654183Y-110031524D01*
X194448458Y-109780847D01*
X194448457Y-109780846D01*
X194448453Y-109780841D01*
X194219158Y-109551546D01*
X193968481Y-109345821D01*
X193968480Y-109345820D01*
X193968476Y-109345817D01*
X193698842Y-109165653D01*
X193698837Y-109165650D01*
X193698830Y-109165646D01*
X193412854Y-109012788D01*
X193412849Y-109012786D01*
X193113247Y-108888686D01*
X192802913Y-108794548D01*
X192802902Y-108794545D01*
X192484874Y-108731287D01*
X192484857Y-108731284D01*
X192240812Y-108707248D01*
X192162143Y-108699500D01*
X191837857Y-108699500D01*
X191765099Y-108706666D01*
X191515142Y-108731284D01*
X191515125Y-108731287D01*
X191197097Y-108794545D01*
X191197086Y-108794548D01*
X190886752Y-108888686D01*
X190587150Y-109012786D01*
X190587145Y-109012788D01*
X190301169Y-109165646D01*
X190301151Y-109165657D01*
X190031532Y-109345811D01*
X190031518Y-109345821D01*
X189780841Y-109551546D01*
X189551546Y-109780841D01*
X189345821Y-110031518D01*
X189345811Y-110031532D01*
X189165657Y-110301151D01*
X189165646Y-110301169D01*
X189012788Y-110587145D01*
X189012786Y-110587150D01*
X188888686Y-110886752D01*
X188794548Y-111197086D01*
X188794545Y-111197097D01*
X188731287Y-111515125D01*
X188731284Y-111515142D01*
X188709122Y-111740164D01*
X188699500Y-111837857D01*
X184818782Y-111837857D01*
X184818782Y-111171733D01*
X145015764Y-111171733D01*
X145015764Y-117119844D01*
X79217965Y-117119844D01*
X78935287Y-116725366D01*
X78930779Y-116718619D01*
X78641360Y-116253196D01*
X78637303Y-116246169D01*
X78385439Y-115774966D01*
X78378936Y-115762800D01*
X78375356Y-115755539D01*
X78149159Y-115256309D01*
X78146054Y-115248813D01*
X77953000Y-114735882D01*
X77950391Y-114728198D01*
X77795975Y-114219158D01*
X77791285Y-114203697D01*
X77789194Y-114195893D01*
X77664732Y-113662102D01*
X77663158Y-113654187D01*
X77573871Y-113113386D01*
X77572818Y-113105388D01*
X77519095Y-112559928D01*
X77518565Y-112551841D01*
X77517166Y-112509113D01*
X77500566Y-112002016D01*
X77500500Y-111997959D01*
X77500500Y-111837857D01*
X82699500Y-111837857D01*
X82699500Y-112162143D01*
X82705937Y-112227500D01*
X82731284Y-112484857D01*
X82731287Y-112484874D01*
X82794545Y-112802902D01*
X82794548Y-112802913D01*
X82888686Y-113113247D01*
X83012786Y-113412849D01*
X83012788Y-113412854D01*
X83165646Y-113698830D01*
X83165657Y-113698848D01*
X83345811Y-113968467D01*
X83345821Y-113968481D01*
X83551546Y-114219158D01*
X83780841Y-114448453D01*
X83780846Y-114448457D01*
X83780847Y-114448458D01*
X84031524Y-114654183D01*
X84301158Y-114834347D01*
X84301167Y-114834352D01*
X84301169Y-114834353D01*
X84587145Y-114987211D01*
X84587147Y-114987211D01*
X84587153Y-114987215D01*
X84886754Y-115111314D01*
X85197077Y-115205449D01*
X85197083Y-115205450D01*
X85197086Y-115205451D01*
X85197097Y-115205454D01*
X85396528Y-115245122D01*
X85515132Y-115268714D01*
X85837857Y-115300500D01*
X85837860Y-115300500D01*
X86162140Y-115300500D01*
X86162143Y-115300500D01*
X86484868Y-115268714D01*
X86642295Y-115237399D01*
X86802902Y-115205454D01*
X86802913Y-115205451D01*
X86802913Y-115205450D01*
X86802923Y-115205449D01*
X87113246Y-115111314D01*
X87412847Y-114987215D01*
X87698842Y-114834347D01*
X87968476Y-114654183D01*
X88219153Y-114448458D01*
X88448458Y-114219153D01*
X88654183Y-113968476D01*
X88834347Y-113698842D01*
X88987215Y-113412847D01*
X89111314Y-113113246D01*
X89205449Y-112802923D01*
X89205451Y-112802913D01*
X89205454Y-112802902D01*
X89249792Y-112579993D01*
X89268714Y-112484868D01*
X89300500Y-112162143D01*
X89300500Y-111837857D01*
X89268714Y-111515132D01*
X89245122Y-111396528D01*
X89205454Y-111197097D01*
X89205451Y-111197086D01*
X89205450Y-111197083D01*
X89205449Y-111197077D01*
X89115327Y-110899983D01*
X101119500Y-110899983D01*
X101119500Y-113100001D01*
X101119501Y-113100018D01*
X101130000Y-113202796D01*
X101130001Y-113202799D01*
X101180962Y-113356587D01*
X101185186Y-113369334D01*
X101277288Y-113518656D01*
X101401344Y-113642712D01*
X101550666Y-113734814D01*
X101717203Y-113789999D01*
X101819991Y-113800500D01*
X104020008Y-113800499D01*
X104122797Y-113789999D01*
X104289334Y-113734814D01*
X104438656Y-113642712D01*
X104562712Y-113518656D01*
X104654814Y-113369334D01*
X104709999Y-113202797D01*
X104720500Y-113100009D01*
X104720499Y-111881995D01*
X106199500Y-111881995D01*
X106199500Y-112118004D01*
X106199501Y-112118020D01*
X106230306Y-112352010D01*
X106291394Y-112579993D01*
X106381714Y-112798045D01*
X106381719Y-112798056D01*
X106437412Y-112894517D01*
X106499727Y-113002450D01*
X106499729Y-113002453D01*
X106499730Y-113002454D01*
X106643406Y-113189697D01*
X106643412Y-113189704D01*
X106810295Y-113356587D01*
X106810302Y-113356593D01*
X106826909Y-113369336D01*
X106997550Y-113500273D01*
X107128918Y-113576118D01*
X107201943Y-113618280D01*
X107201948Y-113618282D01*
X107201951Y-113618284D01*
X107420007Y-113708606D01*
X107647986Y-113769693D01*
X107881989Y-113800500D01*
X107881996Y-113800500D01*
X108118004Y-113800500D01*
X108118011Y-113800500D01*
X108352014Y-113769693D01*
X108579993Y-113708606D01*
X108798049Y-113618284D01*
X109002450Y-113500273D01*
X109189699Y-113356592D01*
X109356592Y-113189699D01*
X109387811Y-113149014D01*
X109444239Y-113107811D01*
X109486187Y-113100500D01*
X113679266Y-113100500D01*
X113698663Y-113102026D01*
X113862648Y-113128000D01*
X113862649Y-113128000D01*
X114067351Y-113128000D01*
X114067352Y-113128000D01*
X114269534Y-113095977D01*
X114464219Y-113032720D01*
X114646610Y-112939787D01*
X114739590Y-112872232D01*
X114812213Y-112819471D01*
X114812215Y-112819468D01*
X114812219Y-112819466D01*
X114956966Y-112674719D01*
X114956968Y-112674715D01*
X114956971Y-112674713D01*
X115025788Y-112579993D01*
X115077287Y-112509110D01*
X115170220Y-112326719D01*
X115233477Y-112132034D01*
X115265500Y-111929852D01*
X115265500Y-111725182D01*
X117665000Y-111725182D01*
X117665000Y-111929817D01*
X117697009Y-112131917D01*
X117760244Y-112326531D01*
X117853141Y-112508850D01*
X117853147Y-112508859D01*
X117885523Y-112553421D01*
X117885524Y-112553422D01*
X118565000Y-111873946D01*
X118565000Y-111880161D01*
X118592259Y-111981894D01*
X118644920Y-112073106D01*
X118719394Y-112147580D01*
X118810606Y-112200241D01*
X118912339Y-112227500D01*
X118918553Y-112227500D01*
X118239076Y-112906974D01*
X118283650Y-112939359D01*
X118465968Y-113032255D01*
X118660582Y-113095490D01*
X118862683Y-113127500D01*
X119067317Y-113127500D01*
X119269417Y-113095490D01*
X119464031Y-113032255D01*
X119646349Y-112939359D01*
X119690921Y-112906974D01*
X119011447Y-112227500D01*
X119017661Y-112227500D01*
X119119394Y-112200241D01*
X119210606Y-112147580D01*
X119285080Y-112073106D01*
X119337741Y-111981894D01*
X119365000Y-111880161D01*
X119365000Y-111873947D01*
X120044474Y-112553421D01*
X120076859Y-112508849D01*
X120169755Y-112326531D01*
X120232990Y-112131917D01*
X120265000Y-111929817D01*
X120265000Y-111725182D01*
X120232990Y-111523082D01*
X120169755Y-111328468D01*
X120092408Y-111176666D01*
X120076859Y-111146150D01*
X120044474Y-111101577D01*
X120044474Y-111101576D01*
X119365000Y-111781051D01*
X119365000Y-111774839D01*
X119337741Y-111673106D01*
X119285080Y-111581894D01*
X119210606Y-111507420D01*
X119119394Y-111454759D01*
X119017661Y-111427500D01*
X119011446Y-111427500D01*
X119690922Y-110748024D01*
X119690921Y-110748023D01*
X119646359Y-110715647D01*
X119646350Y-110715641D01*
X119464031Y-110622744D01*
X119269417Y-110559509D01*
X119067317Y-110527500D01*
X118862683Y-110527500D01*
X118660582Y-110559509D01*
X118465968Y-110622744D01*
X118283644Y-110715643D01*
X118239077Y-110748023D01*
X118239077Y-110748024D01*
X118918554Y-111427500D01*
X118912339Y-111427500D01*
X118810606Y-111454759D01*
X118719394Y-111507420D01*
X118644920Y-111581894D01*
X118592259Y-111673106D01*
X118565000Y-111774839D01*
X118565000Y-111781053D01*
X117885524Y-111101577D01*
X117885523Y-111101577D01*
X117853143Y-111146144D01*
X117760244Y-111328468D01*
X117697009Y-111523082D01*
X117665000Y-111725182D01*
X115265500Y-111725182D01*
X115265500Y-111725148D01*
X115253279Y-111647986D01*
X115233477Y-111522965D01*
X115200023Y-111420006D01*
X115170220Y-111328281D01*
X115170218Y-111328278D01*
X115170218Y-111328276D01*
X115105853Y-111201954D01*
X115077287Y-111145890D01*
X115045092Y-111101577D01*
X114956971Y-110980286D01*
X114812213Y-110835528D01*
X114646613Y-110715215D01*
X114646612Y-110715214D01*
X114646610Y-110715213D01*
X114589653Y-110686191D01*
X114464223Y-110622281D01*
X114269534Y-110559022D01*
X114094995Y-110531378D01*
X114067352Y-110527000D01*
X113862648Y-110527000D01*
X113838329Y-110530851D01*
X113660465Y-110559022D01*
X113465776Y-110622281D01*
X113283386Y-110715215D01*
X113117786Y-110835528D01*
X113117782Y-110835532D01*
X113090134Y-110863181D01*
X113028811Y-110896666D01*
X113002453Y-110899500D01*
X109486187Y-110899500D01*
X109419148Y-110879815D01*
X109387811Y-110850986D01*
X109356593Y-110810302D01*
X109356587Y-110810295D01*
X109189704Y-110643412D01*
X109189697Y-110643406D01*
X109002454Y-110499730D01*
X109002453Y-110499729D01*
X109002450Y-110499727D01*
X108920957Y-110452677D01*
X108798056Y-110381719D01*
X108798045Y-110381714D01*
X108579993Y-110291394D01*
X108352010Y-110230306D01*
X108118020Y-110199501D01*
X108118017Y-110199500D01*
X108118011Y-110199500D01*
X107881989Y-110199500D01*
X107881983Y-110199500D01*
X107881979Y-110199501D01*
X107647989Y-110230306D01*
X107420006Y-110291394D01*
X107201954Y-110381714D01*
X107201943Y-110381719D01*
X106997545Y-110499730D01*
X106810302Y-110643406D01*
X106810295Y-110643412D01*
X106643412Y-110810295D01*
X106643406Y-110810302D01*
X106499730Y-110997545D01*
X106381719Y-111201943D01*
X106381714Y-111201954D01*
X106291394Y-111420006D01*
X106230306Y-111647989D01*
X106199501Y-111881979D01*
X106199500Y-111881995D01*
X104720499Y-111881995D01*
X104720499Y-111807202D01*
X104740184Y-111740164D01*
X104756813Y-111719527D01*
X115339523Y-101136819D01*
X115400846Y-101103334D01*
X115427204Y-101100500D01*
X144086610Y-101100500D01*
X144086611Y-101100500D01*
X144257701Y-101073402D01*
X144422445Y-101019873D01*
X144576788Y-100941232D01*
X144716928Y-100839414D01*
X147806342Y-97750000D01*
X156520898Y-97750000D01*
X157566988Y-97750000D01*
X157534075Y-97807007D01*
X157500000Y-97934174D01*
X157500000Y-98065826D01*
X157534075Y-98192993D01*
X157566988Y-98250000D01*
X156520898Y-98250000D01*
X156536934Y-98351247D01*
X156609897Y-98575802D01*
X156717085Y-98786171D01*
X156855866Y-98977186D01*
X157022813Y-99144133D01*
X157213828Y-99282914D01*
X157424195Y-99390102D01*
X157648744Y-99463063D01*
X157648750Y-99463065D01*
X157750000Y-99479101D01*
X157750000Y-98433012D01*
X157807007Y-98465925D01*
X157934174Y-98500000D01*
X158065826Y-98500000D01*
X158192993Y-98465925D01*
X158250000Y-98433012D01*
X158250000Y-99479100D01*
X158351249Y-99463065D01*
X158351255Y-99463063D01*
X158575804Y-99390102D01*
X158786171Y-99282914D01*
X158977186Y-99144133D01*
X159144133Y-98977186D01*
X159282914Y-98786171D01*
X159390102Y-98575802D01*
X159463065Y-98351247D01*
X159479102Y-98250000D01*
X158433012Y-98250000D01*
X158465925Y-98192993D01*
X158500000Y-98065826D01*
X158500000Y-97934174D01*
X158465925Y-97807007D01*
X158433012Y-97750000D01*
X159479102Y-97750000D01*
X159463065Y-97648752D01*
X159390102Y-97424197D01*
X159282914Y-97213828D01*
X159144133Y-97022813D01*
X158977186Y-96855866D01*
X158786171Y-96717085D01*
X158575802Y-96609897D01*
X158351247Y-96536934D01*
X158250000Y-96520897D01*
X158250000Y-97566988D01*
X158192993Y-97534075D01*
X158065826Y-97500000D01*
X157934174Y-97500000D01*
X157807007Y-97534075D01*
X157750000Y-97566988D01*
X157750000Y-96520897D01*
X157648752Y-96536934D01*
X157424197Y-96609897D01*
X157213828Y-96717085D01*
X157022813Y-96855866D01*
X156855866Y-97022813D01*
X156717085Y-97213828D01*
X156609897Y-97424197D01*
X156536934Y-97648752D01*
X156520898Y-97750000D01*
X147806342Y-97750000D01*
X167894414Y-77661928D01*
X167899153Y-77655405D01*
X167996232Y-77521788D01*
X168074873Y-77367445D01*
X168128402Y-77202701D01*
X168155500Y-77031611D01*
X168155500Y-73593214D01*
X168175185Y-73526175D01*
X168191819Y-73505533D01*
X168210786Y-73486566D01*
X168345217Y-73301538D01*
X168449048Y-73097758D01*
X168477170Y-73011206D01*
X168519721Y-72880249D01*
X168519721Y-72880248D01*
X168519722Y-72880245D01*
X168555500Y-72654354D01*
X168555500Y-72425646D01*
X168519722Y-72199755D01*
X168519721Y-72199751D01*
X168519721Y-72199750D01*
X168449049Y-71982244D01*
X168442029Y-71968467D01*
X168345217Y-71778462D01*
X168210786Y-71593434D01*
X168049066Y-71431714D01*
X167964134Y-71370007D01*
X167921470Y-71314678D01*
X167915491Y-71245064D01*
X167948097Y-71183269D01*
X167964137Y-71169371D01*
X168048739Y-71107905D01*
X168210402Y-70946242D01*
X168344788Y-70761276D01*
X168448582Y-70557570D01*
X168519234Y-70340128D01*
X168533509Y-70250000D01*
X167545748Y-70250000D01*
X167567518Y-70212292D01*
X167605000Y-70072409D01*
X167605000Y-69927591D01*
X167580956Y-69837860D01*
X173699500Y-69837860D01*
X173699500Y-70162139D01*
X173731284Y-70484857D01*
X173731287Y-70484874D01*
X173794545Y-70802902D01*
X173794548Y-70802913D01*
X173888686Y-71113247D01*
X173921908Y-71193452D01*
X173995040Y-71370008D01*
X174012786Y-71412849D01*
X174012788Y-71412854D01*
X174165646Y-71698830D01*
X174165657Y-71698848D01*
X174345811Y-71968467D01*
X174345821Y-71968481D01*
X174551546Y-72219158D01*
X174780841Y-72448453D01*
X174780846Y-72448457D01*
X174780847Y-72448458D01*
X175031524Y-72654183D01*
X175301158Y-72834347D01*
X175301167Y-72834352D01*
X175301169Y-72834353D01*
X175587145Y-72987211D01*
X175587147Y-72987211D01*
X175587153Y-72987215D01*
X175886754Y-73111314D01*
X176197077Y-73205449D01*
X176197083Y-73205450D01*
X176197086Y-73205451D01*
X176197097Y-73205454D01*
X176396528Y-73245122D01*
X176515132Y-73268714D01*
X176837857Y-73300500D01*
X176837860Y-73300500D01*
X177162140Y-73300500D01*
X177162143Y-73300500D01*
X177484868Y-73268714D01*
X177642295Y-73237399D01*
X177802902Y-73205454D01*
X177802913Y-73205451D01*
X177802913Y-73205450D01*
X177802923Y-73205449D01*
X178113246Y-73111314D01*
X178412847Y-72987215D01*
X178698842Y-72834347D01*
X178968476Y-72654183D01*
X179219153Y-72448458D01*
X179448458Y-72219153D01*
X179654183Y-71968476D01*
X179834347Y-71698842D01*
X179987215Y-71412847D01*
X180111314Y-71113246D01*
X180205449Y-70802923D01*
X180205451Y-70802913D01*
X180205454Y-70802902D01*
X180237399Y-70642295D01*
X180268714Y-70484868D01*
X180300500Y-70162143D01*
X180300500Y-69837857D01*
X180268714Y-69515132D01*
X180245122Y-69396528D01*
X180205454Y-69197097D01*
X180205451Y-69197086D01*
X180205450Y-69197083D01*
X180205449Y-69197077D01*
X180111314Y-68886754D01*
X179987215Y-68587153D01*
X179919449Y-68460373D01*
X179834353Y-68301169D01*
X179834352Y-68301167D01*
X179834347Y-68301158D01*
X179654183Y-68031524D01*
X179448458Y-67780847D01*
X179448457Y-67780846D01*
X179448453Y-67780841D01*
X179219158Y-67551546D01*
X178968481Y-67345821D01*
X178968480Y-67345820D01*
X178968476Y-67345817D01*
X178698842Y-67165653D01*
X178698837Y-67165650D01*
X178698830Y-67165646D01*
X178412854Y-67012788D01*
X178412849Y-67012786D01*
X178113247Y-66888686D01*
X177802913Y-66794548D01*
X177802902Y-66794545D01*
X177484874Y-66731287D01*
X177484857Y-66731284D01*
X177240812Y-66707248D01*
X177162143Y-66699500D01*
X176837857Y-66699500D01*
X176765099Y-66706666D01*
X176515142Y-66731284D01*
X176515125Y-66731287D01*
X176197097Y-66794545D01*
X176197086Y-66794548D01*
X175886752Y-66888686D01*
X175587150Y-67012786D01*
X175587145Y-67012788D01*
X175301169Y-67165646D01*
X175301151Y-67165657D01*
X175031532Y-67345811D01*
X175031518Y-67345821D01*
X174780841Y-67551546D01*
X174551546Y-67780841D01*
X174345821Y-68031518D01*
X174345811Y-68031532D01*
X174165657Y-68301151D01*
X174165646Y-68301169D01*
X174012788Y-68587145D01*
X174012786Y-68587150D01*
X173888686Y-68886752D01*
X173794548Y-69197086D01*
X173794545Y-69197097D01*
X173731287Y-69515125D01*
X173731284Y-69515142D01*
X173699500Y-69837860D01*
X167580956Y-69837860D01*
X167567518Y-69787708D01*
X167545748Y-69750000D01*
X168533509Y-69750000D01*
X168533509Y-69749999D01*
X168519234Y-69659871D01*
X168448582Y-69442429D01*
X168344788Y-69238723D01*
X168211988Y-69055940D01*
X168188508Y-68990133D01*
X168204333Y-68922079D01*
X168254439Y-68873384D01*
X168268966Y-68866875D01*
X168297331Y-68856296D01*
X168412546Y-68770046D01*
X168498796Y-68654831D01*
X168549091Y-68519983D01*
X168555500Y-68460373D01*
X168555499Y-66459628D01*
X168549091Y-66400017D01*
X168498796Y-66265169D01*
X168498795Y-66265168D01*
X168498793Y-66265164D01*
X168412547Y-66149955D01*
X168300188Y-66065842D01*
X168258318Y-66009908D01*
X168250500Y-65966576D01*
X168250500Y-63379500D01*
X168256569Y-63341182D01*
X168268477Y-63304534D01*
X168300500Y-63102352D01*
X168300500Y-62897648D01*
X168268477Y-62695466D01*
X168205220Y-62500781D01*
X168205218Y-62500778D01*
X168205218Y-62500776D01*
X168171503Y-62434607D01*
X168112287Y-62318390D01*
X168089350Y-62286819D01*
X167991971Y-62152786D01*
X167847213Y-62008028D01*
X167681613Y-61887715D01*
X167681612Y-61887714D01*
X167681610Y-61887713D01*
X167624653Y-61858691D01*
X167499223Y-61794781D01*
X167304534Y-61731522D01*
X167129995Y-61703878D01*
X167102352Y-61699500D01*
X166897648Y-61699500D01*
X166873329Y-61703351D01*
X166695465Y-61731522D01*
X166500776Y-61794781D01*
X166318386Y-61887715D01*
X166152786Y-62008028D01*
X166008028Y-62152786D01*
X165887715Y-62318386D01*
X165794781Y-62500776D01*
X165731522Y-62695465D01*
X165699500Y-62897648D01*
X165699500Y-63102351D01*
X165731522Y-63304530D01*
X165731522Y-63304531D01*
X165743431Y-63341182D01*
X165749500Y-63379500D01*
X165749500Y-64086664D01*
X165729815Y-64153703D01*
X165677011Y-64199458D01*
X165607853Y-64209402D01*
X165544297Y-64180377D01*
X165537819Y-64174345D01*
X161409648Y-60046174D01*
X161409646Y-60046172D01*
X161250405Y-59930476D01*
X161075030Y-59841117D01*
X160887826Y-59780290D01*
X160693422Y-59749500D01*
X160693417Y-59749500D01*
X144318336Y-59749500D01*
X144251297Y-59729815D01*
X144205542Y-59677011D01*
X144195598Y-59607853D01*
X144224623Y-59544297D01*
X144230655Y-59537819D01*
X145870792Y-57897682D01*
X165700000Y-57897682D01*
X165700000Y-58102317D01*
X165732009Y-58304417D01*
X165795244Y-58499031D01*
X165888141Y-58681350D01*
X165888147Y-58681359D01*
X165920523Y-58725921D01*
X165920524Y-58725922D01*
X166600000Y-58046446D01*
X166600000Y-58052661D01*
X166627259Y-58154394D01*
X166679920Y-58245606D01*
X166754394Y-58320080D01*
X166845606Y-58372741D01*
X166947339Y-58400000D01*
X166953553Y-58400000D01*
X166274076Y-59079474D01*
X166318650Y-59111859D01*
X166500968Y-59204755D01*
X166695582Y-59267990D01*
X166897683Y-59300000D01*
X167102317Y-59300000D01*
X167304417Y-59267990D01*
X167499031Y-59204755D01*
X167681349Y-59111859D01*
X167725921Y-59079474D01*
X167046447Y-58400000D01*
X167052661Y-58400000D01*
X167154394Y-58372741D01*
X167245606Y-58320080D01*
X167320080Y-58245606D01*
X167372741Y-58154394D01*
X167400000Y-58052661D01*
X167400000Y-58046448D01*
X168079474Y-58725922D01*
X168079474Y-58725921D01*
X168111859Y-58681349D01*
X168204755Y-58499031D01*
X168267990Y-58304417D01*
X168300000Y-58102317D01*
X168300000Y-57897682D01*
X168267990Y-57695582D01*
X168204755Y-57500968D01*
X168111859Y-57318650D01*
X168079474Y-57274077D01*
X168079474Y-57274076D01*
X167400000Y-57953551D01*
X167400000Y-57947339D01*
X167372741Y-57845606D01*
X167320080Y-57754394D01*
X167245606Y-57679920D01*
X167154394Y-57627259D01*
X167052661Y-57600000D01*
X167046446Y-57600000D01*
X167725922Y-56920524D01*
X167725921Y-56920523D01*
X167681359Y-56888147D01*
X167681350Y-56888141D01*
X167499031Y-56795244D01*
X167304417Y-56732009D01*
X167102317Y-56700000D01*
X166897683Y-56700000D01*
X166695582Y-56732009D01*
X166500968Y-56795244D01*
X166318644Y-56888143D01*
X166274077Y-56920523D01*
X166274077Y-56920524D01*
X166953554Y-57600000D01*
X166947339Y-57600000D01*
X166845606Y-57627259D01*
X166754394Y-57679920D01*
X166679920Y-57754394D01*
X166627259Y-57845606D01*
X166600000Y-57947339D01*
X166600000Y-57953553D01*
X165920524Y-57274077D01*
X165920523Y-57274077D01*
X165888143Y-57318644D01*
X165795244Y-57500968D01*
X165732009Y-57695582D01*
X165700000Y-57897682D01*
X145870792Y-57897682D01*
X147481655Y-56286819D01*
X147542978Y-56253334D01*
X147569336Y-56250500D01*
X171430664Y-56250500D01*
X171497703Y-56270185D01*
X171518345Y-56286819D01*
X189713181Y-74481655D01*
X189746666Y-74542978D01*
X189749500Y-74569336D01*
X189749500Y-76430664D01*
X189729815Y-76497703D01*
X189713181Y-76518345D01*
X174598345Y-91633181D01*
X174537022Y-91666666D01*
X174510664Y-91669500D01*
X164579751Y-91669500D01*
X164512712Y-91649815D01*
X164480485Y-91619812D01*
X164437548Y-91562457D01*
X164437546Y-91562454D01*
X164411758Y-91543149D01*
X164322335Y-91476206D01*
X164322328Y-91476202D01*
X164187482Y-91425908D01*
X164187483Y-91425908D01*
X164127883Y-91419501D01*
X164127881Y-91419500D01*
X164127873Y-91419500D01*
X164127864Y-91419500D01*
X162032129Y-91419500D01*
X162032123Y-91419501D01*
X161972516Y-91425908D01*
X161837671Y-91476202D01*
X161837664Y-91476206D01*
X161722455Y-91562452D01*
X161722452Y-91562455D01*
X161636206Y-91677664D01*
X161636202Y-91677671D01*
X161585908Y-91812517D01*
X161579501Y-91872116D01*
X161579500Y-91872135D01*
X161579500Y-93967870D01*
X161579501Y-93967876D01*
X161585908Y-94027483D01*
X161636202Y-94162328D01*
X161636206Y-94162335D01*
X161722452Y-94277544D01*
X161722455Y-94277547D01*
X161824227Y-94353734D01*
X161866098Y-94409667D01*
X161871082Y-94479359D01*
X161837596Y-94540682D01*
X161776273Y-94574166D01*
X161749916Y-94577000D01*
X161476836Y-94577000D01*
X161409797Y-94557315D01*
X161389155Y-94540681D01*
X159500783Y-92652309D01*
X159467298Y-92590986D01*
X159465995Y-92584052D01*
X159463553Y-92568632D01*
X159390568Y-92344008D01*
X159390566Y-92344005D01*
X159390566Y-92344003D01*
X159283342Y-92133566D01*
X159257804Y-92098416D01*
X159144517Y-91942490D01*
X158977510Y-91775483D01*
X158786433Y-91636657D01*
X158753373Y-91619812D01*
X158575996Y-91529433D01*
X158351368Y-91456446D01*
X158118097Y-91419500D01*
X158118092Y-91419500D01*
X157881908Y-91419500D01*
X157881903Y-91419500D01*
X157648631Y-91456446D01*
X157424003Y-91529433D01*
X157213566Y-91636657D01*
X157123487Y-91702104D01*
X157022490Y-91775483D01*
X157022488Y-91775485D01*
X157022487Y-91775485D01*
X156855485Y-91942487D01*
X156855485Y-91942488D01*
X156855483Y-91942490D01*
X156819056Y-91992627D01*
X156716657Y-92133566D01*
X156609433Y-92344003D01*
X156536446Y-92568631D01*
X156499500Y-92801902D01*
X156499500Y-93038097D01*
X156536446Y-93271368D01*
X156609433Y-93495996D01*
X156630635Y-93537606D01*
X156716657Y-93706433D01*
X156855483Y-93897510D01*
X157022490Y-94064517D01*
X157213567Y-94203343D01*
X157312991Y-94254002D01*
X157424003Y-94310566D01*
X157424005Y-94310566D01*
X157424008Y-94310568D01*
X157648632Y-94383553D01*
X157664027Y-94385991D01*
X157727160Y-94415920D01*
X157732309Y-94420783D01*
X160092854Y-96781328D01*
X160252095Y-96897024D01*
X160427474Y-96986384D01*
X160427476Y-96986384D01*
X160427479Y-96986386D01*
X160427477Y-96986386D01*
X160522328Y-97017204D01*
X160586175Y-97037949D01*
X160614674Y-97047209D01*
X160701078Y-97060893D01*
X160809078Y-97078000D01*
X160809083Y-97078000D01*
X160809084Y-97078000D01*
X161005917Y-97078000D01*
X161663382Y-97078000D01*
X161730421Y-97097685D01*
X161776176Y-97150489D01*
X161786120Y-97219647D01*
X161773867Y-97258295D01*
X161689433Y-97424003D01*
X161616446Y-97648631D01*
X161579500Y-97881902D01*
X161579500Y-98118097D01*
X161616446Y-98351368D01*
X161689433Y-98575996D01*
X161796524Y-98786171D01*
X161796657Y-98786433D01*
X161935483Y-98977510D01*
X162102490Y-99144517D01*
X162293567Y-99283343D01*
X162392991Y-99334002D01*
X162504003Y-99390566D01*
X162504005Y-99390566D01*
X162504008Y-99390568D01*
X162728632Y-99463553D01*
X162744027Y-99465991D01*
X162807160Y-99495920D01*
X162812309Y-99500783D01*
X163126172Y-99814646D01*
X163265354Y-99953828D01*
X163424595Y-100069524D01*
X163507455Y-100111743D01*
X163599970Y-100158882D01*
X163599972Y-100158882D01*
X163599975Y-100158884D01*
X163700317Y-100191487D01*
X163787173Y-100219709D01*
X163981578Y-100250500D01*
X163981583Y-100250500D01*
X189935922Y-100250500D01*
X190130326Y-100219709D01*
X190317526Y-100158884D01*
X190492905Y-100069524D01*
X190652146Y-99953828D01*
X192941655Y-97664317D01*
X193002978Y-97630833D01*
X193029336Y-97627999D01*
X194110002Y-97627999D01*
X194110008Y-97627999D01*
X194212797Y-97617499D01*
X194379334Y-97562314D01*
X194528656Y-97470212D01*
X194652712Y-97346156D01*
X194744814Y-97196834D01*
X194799999Y-97030297D01*
X194810500Y-96927509D01*
X194810499Y-94727492D01*
X194799999Y-94624703D01*
X194744814Y-94458166D01*
X194652712Y-94308844D01*
X194528656Y-94184788D01*
X194379334Y-94092686D01*
X194212797Y-94037501D01*
X194212795Y-94037500D01*
X194110010Y-94027000D01*
X191909998Y-94027000D01*
X191909981Y-94027001D01*
X191807203Y-94037500D01*
X191807200Y-94037501D01*
X191640668Y-94092685D01*
X191640663Y-94092687D01*
X191491342Y-94184789D01*
X191367289Y-94308842D01*
X191275187Y-94458163D01*
X191275185Y-94458168D01*
X191259829Y-94504511D01*
X191220001Y-94624703D01*
X191220001Y-94624704D01*
X191220000Y-94624704D01*
X191209500Y-94727483D01*
X191209500Y-95808163D01*
X191189815Y-95875202D01*
X191173181Y-95895844D01*
X189355845Y-97713181D01*
X189294522Y-97746666D01*
X189268164Y-97749500D01*
X188618204Y-97749500D01*
X188551165Y-97729815D01*
X188505410Y-97677011D01*
X188495466Y-97607853D01*
X188524491Y-97544297D01*
X188570751Y-97510939D01*
X188597160Y-97500000D01*
X188728049Y-97445784D01*
X188932450Y-97327773D01*
X189119699Y-97184092D01*
X189286592Y-97017199D01*
X189430273Y-96829950D01*
X189548284Y-96625549D01*
X189638606Y-96407493D01*
X189699693Y-96179514D01*
X189730500Y-95945511D01*
X189730500Y-95709489D01*
X189699693Y-95475486D01*
X189638606Y-95247507D01*
X189548284Y-95029451D01*
X189548282Y-95029448D01*
X189548280Y-95029443D01*
X189506118Y-94956418D01*
X189430273Y-94825050D01*
X189286592Y-94637801D01*
X189286587Y-94637795D01*
X189119704Y-94470912D01*
X189119697Y-94470906D01*
X188932454Y-94327230D01*
X188932453Y-94327229D01*
X188932450Y-94327227D01*
X188846397Y-94277544D01*
X188728056Y-94209219D01*
X188728045Y-94209214D01*
X188509993Y-94118894D01*
X188320965Y-94068244D01*
X188282014Y-94057807D01*
X188282013Y-94057806D01*
X188282010Y-94057806D01*
X188048020Y-94027001D01*
X188048017Y-94027000D01*
X188048011Y-94027000D01*
X187811989Y-94027000D01*
X187811983Y-94027000D01*
X187811979Y-94027001D01*
X187577989Y-94057806D01*
X187350006Y-94118894D01*
X187131954Y-94209214D01*
X187131943Y-94209219D01*
X186927545Y-94327230D01*
X186740303Y-94470905D01*
X186706698Y-94504511D01*
X186670526Y-94540682D01*
X186609206Y-94574166D01*
X186582847Y-94577000D01*
X164410084Y-94577000D01*
X164386879Y-94570186D01*
X164362824Y-94567641D01*
X164353955Y-94560518D01*
X164343045Y-94557315D01*
X164327207Y-94539037D01*
X164308347Y-94523891D01*
X164304737Y-94513105D01*
X164297290Y-94504511D01*
X164293847Y-94480571D01*
X164286171Y-94457635D01*
X164288964Y-94446611D01*
X164287346Y-94435353D01*
X164297394Y-94413349D01*
X164303336Y-94389906D01*
X164313045Y-94379078D01*
X164316371Y-94371797D01*
X164325435Y-94362388D01*
X164330368Y-94357778D01*
X164437546Y-94277546D01*
X164487068Y-94211392D01*
X164495102Y-94203888D01*
X164516894Y-94192933D01*
X164536419Y-94178318D01*
X164551315Y-94175630D01*
X164557529Y-94172507D01*
X164564524Y-94173247D01*
X164579751Y-94170500D01*
X175178422Y-94170500D01*
X175372826Y-94139709D01*
X175560026Y-94078884D01*
X175735405Y-93989524D01*
X175894646Y-93873828D01*
X191953828Y-77814646D01*
X192069524Y-77655405D01*
X192158884Y-77480026D01*
X192219709Y-77292826D01*
X192250500Y-77098421D01*
X192250500Y-73901577D01*
X192232586Y-73788483D01*
X192219709Y-73707174D01*
X192219708Y-73707170D01*
X192219708Y-73707169D01*
X192160391Y-73524612D01*
X192159329Y-73520847D01*
X192069523Y-73344594D01*
X192065523Y-73339088D01*
X191953829Y-73185355D01*
X172814646Y-54046172D01*
X172655405Y-53930476D01*
X172480030Y-53841117D01*
X172292826Y-53780290D01*
X172098422Y-53749500D01*
X172098417Y-53749500D01*
X146901583Y-53749500D01*
X146901578Y-53749500D01*
X146707173Y-53780290D01*
X146519969Y-53841117D01*
X146344594Y-53930476D01*
X146253742Y-53996484D01*
X146185355Y-54046171D01*
X146185353Y-54046173D01*
X146185352Y-54046173D01*
X140185354Y-60046172D01*
X135481098Y-64750426D01*
X135419775Y-64783911D01*
X135393417Y-64786745D01*
X134264884Y-64786745D01*
X134264878Y-64786746D01*
X134205271Y-64793153D01*
X134070426Y-64843447D01*
X134070419Y-64843451D01*
X133955210Y-64929697D01*
X133955207Y-64929700D01*
X133868961Y-65044909D01*
X133868957Y-65044916D01*
X133818663Y-65179762D01*
X133812256Y-65239361D01*
X133812255Y-65239380D01*
X133812255Y-67735115D01*
X133812256Y-67735121D01*
X133818663Y-67794728D01*
X133868957Y-67929573D01*
X133868961Y-67929580D01*
X133955207Y-68044789D01*
X133955210Y-68044792D01*
X134070419Y-68131038D01*
X134070426Y-68131042D01*
X134205272Y-68181336D01*
X134205271Y-68181336D01*
X134212199Y-68182080D01*
X134264882Y-68187745D01*
X136760627Y-68187744D01*
X136820238Y-68181336D01*
X136955086Y-68131041D01*
X137070301Y-68044791D01*
X137156551Y-67929576D01*
X137206846Y-67794728D01*
X137213255Y-67735118D01*
X137213254Y-66606579D01*
X137232939Y-66539541D01*
X137249568Y-66518904D01*
X141481655Y-62286819D01*
X141542978Y-62253334D01*
X141569336Y-62250500D01*
X160025664Y-62250500D01*
X160092703Y-62270185D01*
X160113345Y-62286819D01*
X165518181Y-67691655D01*
X165551666Y-67752978D01*
X165554500Y-67779336D01*
X165554500Y-68460370D01*
X165554501Y-68460376D01*
X165560908Y-68519983D01*
X165611202Y-68654828D01*
X165611206Y-68654835D01*
X165697452Y-68770044D01*
X165697455Y-68770047D01*
X165812664Y-68856293D01*
X165812667Y-68856295D01*
X165812668Y-68856295D01*
X165812669Y-68856296D01*
X165841025Y-68866872D01*
X165896958Y-68908742D01*
X165921376Y-68974206D01*
X165906525Y-69042479D01*
X165898010Y-69055939D01*
X165765213Y-69238719D01*
X165661417Y-69442429D01*
X165590765Y-69659871D01*
X165576491Y-69750000D01*
X166564252Y-69750000D01*
X166542482Y-69787708D01*
X166505000Y-69927591D01*
X166505000Y-70072409D01*
X166542482Y-70212292D01*
X166564252Y-70250000D01*
X165576491Y-70250000D01*
X165590765Y-70340128D01*
X165661417Y-70557570D01*
X165765211Y-70761276D01*
X165899597Y-70946242D01*
X166061257Y-71107902D01*
X166061263Y-71107907D01*
X166145863Y-71169372D01*
X166188529Y-71224701D01*
X166194508Y-71294315D01*
X166161903Y-71356110D01*
X166145864Y-71370007D01*
X166060940Y-71431709D01*
X166060931Y-71431716D01*
X165899216Y-71593431D01*
X165899216Y-71593432D01*
X165899214Y-71593434D01*
X165822626Y-71698848D01*
X165793900Y-71738386D01*
X165738570Y-71781051D01*
X165693582Y-71789500D01*
X159386080Y-71789500D01*
X159241092Y-71818340D01*
X159241082Y-71818343D01*
X159104511Y-71874912D01*
X159104498Y-71874919D01*
X158981584Y-71957048D01*
X158981580Y-71957051D01*
X149970397Y-80968233D01*
X149909074Y-81001718D01*
X149839382Y-80996734D01*
X149809831Y-80980870D01*
X149681613Y-80887715D01*
X149681612Y-80887714D01*
X149681610Y-80887713D01*
X149624653Y-80858691D01*
X149499223Y-80794781D01*
X149304534Y-80731522D01*
X149129995Y-80703878D01*
X149102352Y-80699500D01*
X148897648Y-80699500D01*
X148873329Y-80703351D01*
X148695465Y-80731522D01*
X148500776Y-80794781D01*
X148318386Y-80887715D01*
X148152786Y-81008028D01*
X148008028Y-81152786D01*
X147887715Y-81318386D01*
X147794781Y-81500776D01*
X147731522Y-81695465D01*
X147699500Y-81897648D01*
X147699500Y-82102351D01*
X147731522Y-82304534D01*
X147794781Y-82499223D01*
X147887715Y-82681613D01*
X148008028Y-82847213D01*
X148152786Y-82991971D01*
X148274535Y-83080425D01*
X148318390Y-83112287D01*
X148434607Y-83171503D01*
X148500776Y-83205218D01*
X148500778Y-83205218D01*
X148500781Y-83205220D01*
X148605137Y-83239127D01*
X148695465Y-83268477D01*
X148796557Y-83284488D01*
X148897648Y-83300500D01*
X148897649Y-83300500D01*
X149102351Y-83300500D01*
X149102352Y-83300500D01*
X149304534Y-83268477D01*
X149499219Y-83205220D01*
X149681610Y-83112287D01*
X149801619Y-83025096D01*
X149847213Y-82991971D01*
X149847215Y-82991968D01*
X149847219Y-82991966D01*
X149991966Y-82847219D01*
X150031735Y-82792480D01*
X150087064Y-82749814D01*
X150107863Y-82743748D01*
X150140344Y-82737286D01*
X150218913Y-82721658D01*
X150355495Y-82665084D01*
X150404729Y-82632186D01*
X150478416Y-82582952D01*
X159734548Y-73326818D01*
X159795871Y-73293334D01*
X159822229Y-73290500D01*
X165693582Y-73290500D01*
X165697286Y-73291587D01*
X165701049Y-73290725D01*
X165730544Y-73301353D01*
X165760621Y-73310185D01*
X165764201Y-73313481D01*
X165766781Y-73314411D01*
X165784310Y-73331995D01*
X165792015Y-73339088D01*
X165792977Y-73340344D01*
X165899214Y-73486566D01*
X165923963Y-73511315D01*
X165928933Y-73517802D01*
X165938684Y-73543081D01*
X165951666Y-73566856D01*
X165953138Y-73580555D01*
X165954078Y-73582990D01*
X165953633Y-73585150D01*
X165954500Y-73593214D01*
X165954500Y-76437796D01*
X165934815Y-76504835D01*
X165918181Y-76525477D01*
X143580477Y-98863181D01*
X143519154Y-98896666D01*
X143492796Y-98899500D01*
X115006611Y-98899500D01*
X114833389Y-98899500D01*
X114793728Y-98905781D01*
X114662302Y-98926597D01*
X114497552Y-98980128D01*
X114343211Y-99058768D01*
X114263256Y-99116859D01*
X114203072Y-99160586D01*
X114203070Y-99160588D01*
X114203069Y-99160588D01*
X103200475Y-110163181D01*
X103139152Y-110196666D01*
X103112794Y-110199500D01*
X101819998Y-110199500D01*
X101819981Y-110199501D01*
X101717203Y-110210000D01*
X101717200Y-110210001D01*
X101550668Y-110265185D01*
X101550663Y-110265187D01*
X101401342Y-110357289D01*
X101277289Y-110481342D01*
X101185187Y-110630663D01*
X101185185Y-110630668D01*
X101180962Y-110643412D01*
X101130001Y-110797203D01*
X101130001Y-110797204D01*
X101130000Y-110797204D01*
X101119500Y-110899983D01*
X89115327Y-110899983D01*
X89111314Y-110886754D01*
X88987215Y-110587153D01*
X88955062Y-110527000D01*
X88834353Y-110301169D01*
X88834352Y-110301167D01*
X88834347Y-110301158D01*
X88654183Y-110031524D01*
X88448458Y-109780847D01*
X88448457Y-109780846D01*
X88448453Y-109780841D01*
X88219158Y-109551546D01*
X87968481Y-109345821D01*
X87968480Y-109345820D01*
X87968476Y-109345817D01*
X87698842Y-109165653D01*
X87698837Y-109165650D01*
X87698830Y-109165646D01*
X87412854Y-109012788D01*
X87412849Y-109012786D01*
X87113247Y-108888686D01*
X86802913Y-108794548D01*
X86802902Y-108794545D01*
X86484874Y-108731287D01*
X86484857Y-108731284D01*
X86240812Y-108707248D01*
X86162143Y-108699500D01*
X85837857Y-108699500D01*
X85765099Y-108706666D01*
X85515142Y-108731284D01*
X85515125Y-108731287D01*
X85197097Y-108794545D01*
X85197086Y-108794548D01*
X84886752Y-108888686D01*
X84587150Y-109012786D01*
X84587145Y-109012788D01*
X84301169Y-109165646D01*
X84301151Y-109165657D01*
X84031532Y-109345811D01*
X84031518Y-109345821D01*
X83780841Y-109551546D01*
X83551546Y-109780841D01*
X83345821Y-110031518D01*
X83345811Y-110031532D01*
X83165657Y-110301151D01*
X83165646Y-110301169D01*
X83012788Y-110587145D01*
X83012786Y-110587150D01*
X82888686Y-110886752D01*
X82794548Y-111197086D01*
X82794545Y-111197097D01*
X82731287Y-111515125D01*
X82731284Y-111515142D01*
X82709122Y-111740164D01*
X82699500Y-111837857D01*
X77500500Y-111837857D01*
X77500500Y-92889778D01*
X136059500Y-92889778D01*
X136059500Y-93110221D01*
X136093985Y-93327952D01*
X136162103Y-93537603D01*
X136162104Y-93537606D01*
X136262187Y-93734025D01*
X136391752Y-93912358D01*
X136391756Y-93912363D01*
X136547636Y-94068243D01*
X136547641Y-94068247D01*
X136703192Y-94181260D01*
X136725978Y-94197815D01*
X136842501Y-94257187D01*
X136922393Y-94297895D01*
X136922396Y-94297896D01*
X137012670Y-94327227D01*
X137132049Y-94366015D01*
X137349778Y-94400500D01*
X137349779Y-94400500D01*
X137570221Y-94400500D01*
X137570222Y-94400500D01*
X137787951Y-94366015D01*
X137997606Y-94297895D01*
X138194022Y-94197815D01*
X138372365Y-94068242D01*
X138422924Y-94017682D01*
X138484245Y-93984198D01*
X138553936Y-93989182D01*
X138609870Y-94031053D01*
X138626786Y-94062030D01*
X138656646Y-94142087D01*
X138656649Y-94142093D01*
X138742809Y-94257187D01*
X138742812Y-94257190D01*
X138857906Y-94343350D01*
X138857913Y-94343354D01*
X138992620Y-94393596D01*
X138992627Y-94393598D01*
X139052155Y-94399999D01*
X139052172Y-94400000D01*
X139750000Y-94400000D01*
X139750000Y-93375277D01*
X139826306Y-93419333D01*
X139940756Y-93450000D01*
X140059244Y-93450000D01*
X140173694Y-93419333D01*
X140250000Y-93375277D01*
X140250000Y-94400000D01*
X140947828Y-94400000D01*
X140947844Y-94399999D01*
X141007372Y-94393598D01*
X141007379Y-94393596D01*
X141142086Y-94343354D01*
X141142093Y-94343350D01*
X141257187Y-94257190D01*
X141257190Y-94257187D01*
X141343350Y-94142093D01*
X141343354Y-94142086D01*
X141393596Y-94007379D01*
X141393598Y-94007372D01*
X141399999Y-93947844D01*
X141400000Y-93947827D01*
X141400000Y-93250000D01*
X140375278Y-93250000D01*
X140419333Y-93173694D01*
X140450000Y-93059244D01*
X140450000Y-92940756D01*
X140419333Y-92826306D01*
X140375278Y-92750000D01*
X141400000Y-92750000D01*
X141400000Y-92052172D01*
X141399999Y-92052155D01*
X141393598Y-91992627D01*
X141393596Y-91992620D01*
X141343354Y-91857913D01*
X141343350Y-91857906D01*
X141257190Y-91742812D01*
X141257187Y-91742809D01*
X141142093Y-91656649D01*
X141142086Y-91656645D01*
X141007379Y-91606403D01*
X141007372Y-91606401D01*
X140947844Y-91600000D01*
X140250000Y-91600000D01*
X140250000Y-92624722D01*
X140173694Y-92580667D01*
X140059244Y-92550000D01*
X139940756Y-92550000D01*
X139826306Y-92580667D01*
X139750000Y-92624722D01*
X139750000Y-91628420D01*
X139663108Y-91588849D01*
X139656209Y-91582883D01*
X139647461Y-91580315D01*
X139630199Y-91560394D01*
X139610255Y-91543149D01*
X139607676Y-91534401D01*
X139601706Y-91527511D01*
X139590608Y-91476500D01*
X139590500Y-91476131D01*
X139590516Y-91476075D01*
X139590500Y-91476000D01*
X139590500Y-83125416D01*
X139610185Y-83058377D01*
X139641613Y-83025099D01*
X139687219Y-82991966D01*
X139831966Y-82847219D01*
X139831968Y-82847215D01*
X139831971Y-82847213D01*
X139907141Y-82743748D01*
X139952287Y-82681610D01*
X140045220Y-82499219D01*
X140108477Y-82304534D01*
X140140500Y-82102352D01*
X140140500Y-81897648D01*
X140108477Y-81695466D01*
X140045220Y-81500781D01*
X140045218Y-81500778D01*
X140045218Y-81500776D01*
X140011503Y-81434607D01*
X139952287Y-81318390D01*
X139944556Y-81307749D01*
X139831971Y-81152786D01*
X139687213Y-81008028D01*
X139521613Y-80887715D01*
X139521612Y-80887714D01*
X139521610Y-80887713D01*
X139464653Y-80858691D01*
X139339223Y-80794781D01*
X139144534Y-80731522D01*
X138969995Y-80703878D01*
X138942352Y-80699500D01*
X138737648Y-80699500D01*
X138713329Y-80703351D01*
X138535465Y-80731522D01*
X138340776Y-80794781D01*
X138158386Y-80887715D01*
X137992786Y-81008028D01*
X137848028Y-81152786D01*
X137727715Y-81318386D01*
X137634781Y-81500776D01*
X137571522Y-81695465D01*
X137539500Y-81897648D01*
X137539500Y-82102351D01*
X137571522Y-82304534D01*
X137634781Y-82499223D01*
X137727715Y-82681613D01*
X137848028Y-82847213D01*
X137848034Y-82847219D01*
X137992781Y-82991966D01*
X138038384Y-83025098D01*
X138081050Y-83080425D01*
X138089500Y-83125416D01*
X138089500Y-91257769D01*
X138069815Y-91324808D01*
X138053181Y-91345450D01*
X137812508Y-91586122D01*
X137751185Y-91619607D01*
X137705429Y-91620914D01*
X137570227Y-91599500D01*
X137570222Y-91599500D01*
X137349778Y-91599500D01*
X137277201Y-91610995D01*
X137132047Y-91633985D01*
X136922396Y-91702103D01*
X136922393Y-91702104D01*
X136725974Y-91802187D01*
X136547641Y-91931752D01*
X136547636Y-91931756D01*
X136391756Y-92087636D01*
X136391752Y-92087641D01*
X136262187Y-92265974D01*
X136162104Y-92462393D01*
X136162103Y-92462396D01*
X136093985Y-92672047D01*
X136059500Y-92889778D01*
X77500500Y-92889778D01*
X77500500Y-73124000D01*
X77520185Y-73056961D01*
X77572989Y-73011206D01*
X77624500Y-73000000D01*
X120000000Y-73000000D01*
X120000000Y-66375820D01*
X126312755Y-66375820D01*
X126312755Y-66598669D01*
X126341840Y-66819599D01*
X126341843Y-66819612D01*
X126399518Y-67034863D01*
X126484800Y-67240747D01*
X126484809Y-67240765D01*
X126596219Y-67433736D01*
X126596228Y-67433749D01*
X126646795Y-67499648D01*
X126646798Y-67499648D01*
X127448142Y-66698304D01*
X127453644Y-66718836D01*
X127532636Y-66855653D01*
X127644347Y-66967364D01*
X127781164Y-67046356D01*
X127801695Y-67051857D01*
X127000350Y-67853200D01*
X127000350Y-67853201D01*
X127066262Y-67903778D01*
X127259240Y-68015194D01*
X127259252Y-68015199D01*
X127465136Y-68100481D01*
X127680387Y-68158156D01*
X127680400Y-68158159D01*
X127901330Y-68187245D01*
X128124180Y-68187245D01*
X128345109Y-68158159D01*
X128345122Y-68158156D01*
X128560373Y-68100481D01*
X128766257Y-68015199D01*
X128766269Y-68015194D01*
X128959253Y-67903775D01*
X129025158Y-67853202D01*
X129025159Y-67853201D01*
X128223814Y-67051857D01*
X128244346Y-67046356D01*
X128381163Y-66967364D01*
X128492874Y-66855653D01*
X128571866Y-66718836D01*
X128577367Y-66698304D01*
X129378711Y-67499649D01*
X129378712Y-67499648D01*
X129429285Y-67433743D01*
X129540704Y-67240759D01*
X129540709Y-67240747D01*
X129625991Y-67034863D01*
X129683666Y-66819612D01*
X129683669Y-66819599D01*
X129712755Y-66598669D01*
X129712755Y-66375820D01*
X129683669Y-66154890D01*
X129683666Y-66154877D01*
X129625991Y-65939626D01*
X129540709Y-65733742D01*
X129540704Y-65733730D01*
X129429288Y-65540752D01*
X129378711Y-65474840D01*
X129378710Y-65474840D01*
X128577367Y-66276184D01*
X128571866Y-66255654D01*
X128492874Y-66118837D01*
X128381163Y-66007126D01*
X128244346Y-65928134D01*
X128223813Y-65922632D01*
X128998077Y-65148370D01*
X129025158Y-65121288D01*
X129025158Y-65121285D01*
X128959259Y-65070718D01*
X128959246Y-65070709D01*
X128766275Y-64959299D01*
X128766257Y-64959290D01*
X128560373Y-64874008D01*
X128345122Y-64816333D01*
X128345109Y-64816330D01*
X128124180Y-64787245D01*
X127901330Y-64787245D01*
X127680400Y-64816330D01*
X127680387Y-64816333D01*
X127465136Y-64874008D01*
X127259252Y-64959290D01*
X127259234Y-64959299D01*
X127066266Y-65070707D01*
X127000350Y-65121287D01*
X127801696Y-65922632D01*
X127781164Y-65928134D01*
X127644347Y-66007126D01*
X127532636Y-66118837D01*
X127453644Y-66255654D01*
X127448142Y-66276185D01*
X126646797Y-65474840D01*
X126596217Y-65540756D01*
X126484809Y-65733724D01*
X126484800Y-65733742D01*
X126399518Y-65939626D01*
X126341843Y-66154877D01*
X126341840Y-66154890D01*
X126312755Y-66375820D01*
X120000000Y-66375820D01*
X120000000Y-64053577D01*
X120019685Y-63986538D01*
X120039015Y-63963280D01*
X136964191Y-48033703D01*
X137026500Y-48002091D01*
X137049176Y-48000000D01*
X150000000Y-48000000D01*
X150000000Y-42124500D01*
X150019685Y-42057461D01*
X150072489Y-42011706D01*
X150124000Y-42000500D01*
X163534218Y-42000500D01*
X163601257Y-42020185D01*
X163621898Y-42036818D01*
X178395360Y-56810281D01*
X178395361Y-56810282D01*
X178473220Y-56888141D01*
X178534719Y-56949640D01*
X178698579Y-57059128D01*
X178698592Y-57059135D01*
X178827333Y-57112461D01*
X178870244Y-57130235D01*
X178880664Y-57134551D01*
X178977312Y-57153775D01*
X179025635Y-57163387D01*
X179073958Y-57173000D01*
X179073959Y-57173000D01*
X179073960Y-57173000D01*
X179271040Y-57173000D01*
X185997357Y-57173000D01*
X186064396Y-57192685D01*
X186110151Y-57245489D01*
X186120715Y-57284398D01*
X186130001Y-57375297D01*
X186130001Y-57375299D01*
X186171644Y-57500968D01*
X186185186Y-57541834D01*
X186277288Y-57691156D01*
X186401344Y-57815212D01*
X186550666Y-57907314D01*
X186717203Y-57962499D01*
X186819991Y-57973000D01*
X189020008Y-57972999D01*
X189122797Y-57962499D01*
X189289334Y-57907314D01*
X189438656Y-57815212D01*
X189562712Y-57691156D01*
X189654814Y-57541834D01*
X189709999Y-57375297D01*
X189720500Y-57272509D01*
X189720499Y-55072492D01*
X189709999Y-54969703D01*
X189654814Y-54803166D01*
X189562712Y-54653844D01*
X189438656Y-54529788D01*
X189289334Y-54437686D01*
X189122797Y-54382501D01*
X189122795Y-54382500D01*
X189020010Y-54372000D01*
X186819998Y-54372000D01*
X186819981Y-54372001D01*
X186717203Y-54382500D01*
X186717200Y-54382501D01*
X186550668Y-54437685D01*
X186550663Y-54437687D01*
X186401342Y-54529789D01*
X186277289Y-54653842D01*
X186185187Y-54803163D01*
X186185185Y-54803168D01*
X186130001Y-54969704D01*
X186130000Y-54969705D01*
X186120714Y-55060603D01*
X186094317Y-55125295D01*
X186037136Y-55165446D01*
X185997356Y-55172000D01*
X179638283Y-55172000D01*
X179571244Y-55152315D01*
X179550602Y-55135681D01*
X164784209Y-40369289D01*
X164784206Y-40369285D01*
X164784206Y-40369286D01*
X164777139Y-40362219D01*
X164777139Y-40362218D01*
X164637782Y-40222861D01*
X164637781Y-40222860D01*
X164637780Y-40222859D01*
X164473920Y-40113371D01*
X164473911Y-40113366D01*
X164352382Y-40063027D01*
X164352379Y-40063026D01*
X164345165Y-40060038D01*
X164291836Y-40037949D01*
X164181511Y-40016004D01*
X164177233Y-40015153D01*
X164177222Y-40015150D01*
X164098543Y-39999500D01*
X164098541Y-39999500D01*
X150124000Y-39999500D01*
X150056961Y-39979815D01*
X150011206Y-39927011D01*
X150000000Y-39875500D01*
X150000000Y-38124500D01*
X150019685Y-38057461D01*
X150072489Y-38011706D01*
X150124000Y-38000500D01*
X173361718Y-38000500D01*
X173428757Y-38020185D01*
X173449399Y-38036819D01*
X191187388Y-55774809D01*
X191220873Y-55836132D01*
X191222646Y-55878675D01*
X191199500Y-56054489D01*
X191199500Y-56290511D01*
X191230307Y-56524514D01*
X191285905Y-56732009D01*
X191291394Y-56752493D01*
X191381714Y-56970545D01*
X191381719Y-56970556D01*
X191432857Y-57059128D01*
X191499727Y-57174950D01*
X191499729Y-57174953D01*
X191499730Y-57174954D01*
X191643406Y-57362197D01*
X191643412Y-57362204D01*
X191810295Y-57529087D01*
X191810302Y-57529093D01*
X191826909Y-57541836D01*
X191997550Y-57672773D01*
X192128918Y-57748618D01*
X192201943Y-57790780D01*
X192201948Y-57790782D01*
X192201951Y-57790784D01*
X192420007Y-57881106D01*
X192647986Y-57942193D01*
X192881989Y-57973000D01*
X192881996Y-57973000D01*
X193118004Y-57973000D01*
X193118011Y-57973000D01*
X193352014Y-57942193D01*
X193579993Y-57881106D01*
X193798049Y-57790784D01*
X194002450Y-57672773D01*
X194189699Y-57529092D01*
X194356592Y-57362199D01*
X194500273Y-57174950D01*
X194618284Y-56970549D01*
X194708606Y-56752493D01*
X194769693Y-56524514D01*
X194800500Y-56290511D01*
X194800500Y-56054489D01*
X194769693Y-55820486D01*
X194708606Y-55592507D01*
X194618284Y-55374451D01*
X194618282Y-55374448D01*
X194618280Y-55374443D01*
X194576118Y-55301418D01*
X194500273Y-55170050D01*
X194425406Y-55072481D01*
X194356593Y-54982802D01*
X194356587Y-54982795D01*
X194189704Y-54815912D01*
X194189697Y-54815906D01*
X194002454Y-54672230D01*
X194002453Y-54672229D01*
X194002450Y-54672227D01*
X193920957Y-54625177D01*
X193798056Y-54554219D01*
X193798045Y-54554214D01*
X193579993Y-54463894D01*
X193352010Y-54402806D01*
X193118020Y-54372001D01*
X193118017Y-54372000D01*
X193118011Y-54372000D01*
X192881989Y-54372000D01*
X192881983Y-54372000D01*
X192881978Y-54372001D01*
X192706175Y-54395146D01*
X192637140Y-54384380D01*
X192602309Y-54359888D01*
X177164914Y-38922494D01*
X177080280Y-38837860D01*
X188699500Y-38837860D01*
X188699500Y-39162139D01*
X188731284Y-39484857D01*
X188731287Y-39484874D01*
X188794545Y-39802902D01*
X188794548Y-39802913D01*
X188888686Y-40113247D01*
X189012786Y-40412849D01*
X189012788Y-40412854D01*
X189165646Y-40698830D01*
X189165657Y-40698848D01*
X189345811Y-40968467D01*
X189345821Y-40968481D01*
X189551546Y-41219158D01*
X189780841Y-41448453D01*
X189780846Y-41448457D01*
X189780847Y-41448458D01*
X190031524Y-41654183D01*
X190301158Y-41834347D01*
X190301167Y-41834352D01*
X190301169Y-41834353D01*
X190587145Y-41987211D01*
X190587147Y-41987211D01*
X190587153Y-41987215D01*
X190886754Y-42111314D01*
X191197077Y-42205449D01*
X191197083Y-42205450D01*
X191197086Y-42205451D01*
X191197097Y-42205454D01*
X191396528Y-42245122D01*
X191515132Y-42268714D01*
X191837857Y-42300500D01*
X191837860Y-42300500D01*
X192162140Y-42300500D01*
X192162143Y-42300500D01*
X192484868Y-42268714D01*
X192642295Y-42237399D01*
X192802902Y-42205454D01*
X192802913Y-42205451D01*
X192802913Y-42205450D01*
X192802923Y-42205449D01*
X193113246Y-42111314D01*
X193412847Y-41987215D01*
X193698842Y-41834347D01*
X193968476Y-41654183D01*
X194219153Y-41448458D01*
X194448458Y-41219153D01*
X194654183Y-40968476D01*
X194834347Y-40698842D01*
X194987215Y-40412847D01*
X195111314Y-40113246D01*
X195205449Y-39802923D01*
X195205451Y-39802913D01*
X195205454Y-39802902D01*
X195237399Y-39642295D01*
X195268714Y-39484868D01*
X195300500Y-39162143D01*
X195300500Y-38837857D01*
X195268714Y-38515132D01*
X195245122Y-38396528D01*
X195205454Y-38197097D01*
X195205451Y-38197086D01*
X195205450Y-38197083D01*
X195205449Y-38197077D01*
X195111314Y-37886754D01*
X194987215Y-37587153D01*
X194834347Y-37301158D01*
X194654183Y-37031524D01*
X194448458Y-36780847D01*
X194448457Y-36780846D01*
X194448453Y-36780841D01*
X194219158Y-36551546D01*
X193968481Y-36345821D01*
X193968480Y-36345820D01*
X193968476Y-36345817D01*
X193698842Y-36165653D01*
X193698837Y-36165650D01*
X193698830Y-36165646D01*
X193412854Y-36012788D01*
X193412849Y-36012786D01*
X193410944Y-36011997D01*
X193205771Y-35927011D01*
X193113247Y-35888686D01*
X192802913Y-35794548D01*
X192802902Y-35794545D01*
X192484874Y-35731287D01*
X192484857Y-35731284D01*
X192240812Y-35707248D01*
X192162143Y-35699500D01*
X191837857Y-35699500D01*
X191765099Y-35706666D01*
X191515142Y-35731284D01*
X191515125Y-35731287D01*
X191197097Y-35794545D01*
X191197086Y-35794548D01*
X190886752Y-35888686D01*
X190587150Y-36012786D01*
X190587145Y-36012788D01*
X190301169Y-36165646D01*
X190301151Y-36165657D01*
X190031532Y-36345811D01*
X190031518Y-36345821D01*
X189780841Y-36551546D01*
X189551546Y-36780841D01*
X189345821Y-37031518D01*
X189345811Y-37031532D01*
X189165657Y-37301151D01*
X189165646Y-37301169D01*
X189012788Y-37587145D01*
X189012786Y-37587150D01*
X188888686Y-37886752D01*
X188794548Y-38197086D01*
X188794545Y-38197097D01*
X188731287Y-38515125D01*
X188731284Y-38515142D01*
X188706666Y-38765099D01*
X188700200Y-38830756D01*
X188699500Y-38837860D01*
X177080280Y-38837860D01*
X174611709Y-36369289D01*
X174611706Y-36369285D01*
X174611706Y-36369286D01*
X174604639Y-36362219D01*
X174604639Y-36362218D01*
X174465282Y-36222861D01*
X174465281Y-36222860D01*
X174465280Y-36222859D01*
X174301420Y-36113371D01*
X174301411Y-36113366D01*
X174226133Y-36082185D01*
X174172665Y-36060038D01*
X174119336Y-36037949D01*
X173992828Y-36012785D01*
X173988883Y-36012000D01*
X173988871Y-36011997D01*
X173926043Y-35999500D01*
X173926041Y-35999500D01*
X150124000Y-35999500D01*
X150056961Y-35979815D01*
X150011206Y-35927011D01*
X150000000Y-35875500D01*
X150000000Y-34000000D01*
X124000000Y-34000000D01*
X124000000Y-41948638D01*
X123980315Y-42015677D01*
X123963681Y-42036319D01*
X117036319Y-48963681D01*
X116974996Y-48997166D01*
X116948638Y-49000000D01*
X77624500Y-49000000D01*
X77557461Y-48980315D01*
X77511706Y-48927511D01*
X77500500Y-48876000D01*
X77500500Y-39002040D01*
X77500566Y-38997983D01*
X77503037Y-38922494D01*
X77505808Y-38837860D01*
X82699500Y-38837860D01*
X82699500Y-39162139D01*
X82731284Y-39484857D01*
X82731287Y-39484874D01*
X82794545Y-39802902D01*
X82794548Y-39802913D01*
X82888686Y-40113247D01*
X83012786Y-40412849D01*
X83012788Y-40412854D01*
X83165646Y-40698830D01*
X83165657Y-40698848D01*
X83345811Y-40968467D01*
X83345821Y-40968481D01*
X83551546Y-41219158D01*
X83780841Y-41448453D01*
X83780846Y-41448457D01*
X83780847Y-41448458D01*
X84031524Y-41654183D01*
X84301158Y-41834347D01*
X84301167Y-41834352D01*
X84301169Y-41834353D01*
X84587145Y-41987211D01*
X84587147Y-41987211D01*
X84587153Y-41987215D01*
X84886754Y-42111314D01*
X85197077Y-42205449D01*
X85197083Y-42205450D01*
X85197086Y-42205451D01*
X85197097Y-42205454D01*
X85396528Y-42245122D01*
X85515132Y-42268714D01*
X85837857Y-42300500D01*
X85837860Y-42300500D01*
X86162140Y-42300500D01*
X86162143Y-42300500D01*
X86484868Y-42268714D01*
X86642295Y-42237399D01*
X86802902Y-42205454D01*
X86802913Y-42205451D01*
X86802913Y-42205450D01*
X86802923Y-42205449D01*
X87113246Y-42111314D01*
X87412847Y-41987215D01*
X87698842Y-41834347D01*
X87968476Y-41654183D01*
X88219153Y-41448458D01*
X88448458Y-41219153D01*
X88654183Y-40968476D01*
X88834347Y-40698842D01*
X88987215Y-40412847D01*
X89111314Y-40113246D01*
X89205449Y-39802923D01*
X89205451Y-39802913D01*
X89205454Y-39802902D01*
X89237399Y-39642295D01*
X89268714Y-39484868D01*
X89300500Y-39162143D01*
X89300500Y-38837857D01*
X89268714Y-38515132D01*
X89245122Y-38396528D01*
X89205454Y-38197097D01*
X89205451Y-38197086D01*
X89205450Y-38197083D01*
X89205449Y-38197077D01*
X89111314Y-37886754D01*
X88987215Y-37587153D01*
X88834347Y-37301158D01*
X88654183Y-37031524D01*
X88448458Y-36780847D01*
X88448457Y-36780846D01*
X88448453Y-36780841D01*
X88219158Y-36551546D01*
X87968481Y-36345821D01*
X87968480Y-36345820D01*
X87968476Y-36345817D01*
X87698842Y-36165653D01*
X87698837Y-36165650D01*
X87698830Y-36165646D01*
X87412854Y-36012788D01*
X87412849Y-36012786D01*
X87410944Y-36011997D01*
X87205771Y-35927011D01*
X87113247Y-35888686D01*
X86802913Y-35794548D01*
X86802902Y-35794545D01*
X86484874Y-35731287D01*
X86484857Y-35731284D01*
X86240812Y-35707248D01*
X86162143Y-35699500D01*
X85837857Y-35699500D01*
X85765099Y-35706666D01*
X85515142Y-35731284D01*
X85515125Y-35731287D01*
X85197097Y-35794545D01*
X85197086Y-35794548D01*
X84886752Y-35888686D01*
X84587150Y-36012786D01*
X84587145Y-36012788D01*
X84301169Y-36165646D01*
X84301151Y-36165657D01*
X84031532Y-36345811D01*
X84031518Y-36345821D01*
X83780841Y-36551546D01*
X83551546Y-36780841D01*
X83345821Y-37031518D01*
X83345811Y-37031532D01*
X83165657Y-37301151D01*
X83165646Y-37301169D01*
X83012788Y-37587145D01*
X83012786Y-37587150D01*
X82888686Y-37886752D01*
X82794548Y-38197086D01*
X82794545Y-38197097D01*
X82731287Y-38515125D01*
X82731284Y-38515142D01*
X82706666Y-38765099D01*
X82700200Y-38830756D01*
X82699500Y-38837860D01*
X77505808Y-38837860D01*
X77518565Y-38448147D01*
X77519096Y-38440061D01*
X77543027Y-38197086D01*
X77572818Y-37894607D01*
X77573870Y-37886617D01*
X77663159Y-37345806D01*
X77664731Y-37337903D01*
X77789196Y-36804099D01*
X77791283Y-36796310D01*
X77950393Y-36271794D01*
X77953000Y-36264117D01*
X77968528Y-36222861D01*
X78146056Y-35751178D01*
X78149159Y-35743690D01*
X78193832Y-35645093D01*
X78375364Y-35244441D01*
X78378930Y-35237211D01*
X78637309Y-34753819D01*
X78641360Y-34746803D01*
X78930779Y-34281380D01*
X78935287Y-34274633D01*
X79016382Y-34161465D01*
X79254546Y-33829107D01*
X79259448Y-33822718D01*
X79607178Y-33399008D01*
X79612502Y-33392938D01*
X79987198Y-32992879D01*
X79992879Y-32987198D01*
X80392938Y-32612502D01*
X80399008Y-32607178D01*
X80822718Y-32259448D01*
X80829107Y-32254546D01*
X81274639Y-31935282D01*
X81281380Y-31930779D01*
X81379037Y-31870052D01*
X81746813Y-31641353D01*
X81753819Y-31637309D01*
X82237211Y-31378930D01*
X82244441Y-31375364D01*
X82743690Y-31149159D01*
X82751178Y-31146056D01*
X83264123Y-30952997D01*
X83271794Y-30950393D01*
X83796310Y-30791283D01*
X83804099Y-30789196D01*
X84337903Y-30664731D01*
X84345806Y-30663159D01*
X84886617Y-30573870D01*
X84894607Y-30572818D01*
X85440073Y-30519095D01*
X85448147Y-30518565D01*
X85997984Y-30500566D01*
X86002041Y-30500500D01*
X86065892Y-30500500D01*
X191934108Y-30500500D01*
X191997959Y-30500500D01*
X192002016Y-30500566D01*
G37*
%TD.AperFunction*%
%TD*%
M02*
